<?xml version="1.0" encoding="UTF-8" standalone="no"?><svg xmlns="http://www.w3.org/2000/svg" xmlns:xlink="http://www.w3.org/1999/xlink" contentScriptType="application/ecmascript" contentStyleType="text/css" height="499px" preserveAspectRatio="none" style="width:747px;height:499px;" version="1.1" viewBox="0 0 747 499" width="747px" zoomAndPan="magnify"><defs><filter height="300%" id="f1arm7gw2rhsiu" width="300%" x="-1" y="-1"><feGaussianBlur result="blurOut" stdDeviation="2.0"/><feColorMatrix in="blurOut" result="blurOut2" type="matrix" values="0 0 0 0 0 0 0 0 0 0 0 0 0 0 0 0 0 0 .4 0"/><feOffset dx="4.0" dy="4.0" in="blurOut2" result="blurOut3"/><feBlend in="SourceGraphic" in2="blurOut3" mode="normal"/></filter></defs><g><line style="stroke: #A80036; stroke-width: 1.0;" x1="29" x2="29" y1="87.6094" y2="251.7188"/><line style="stroke: #A80036; stroke-width: 1.0; stroke-dasharray: 1.0,4.0;" x1="29" x2="29" y1="251.7188" y2="293.5547"/><line style="stroke: #A80036; stroke-width: 1.0;" x1="29" x2="29" y1="293.5547" y2="410.9609"/><line style="stroke: #A80036; stroke-width: 1.0;" x1="210.5" x2="210.5" y1="87.6094" y2="251.7188"/><line style="stroke: #A80036; stroke-width: 1.0; stroke-dasharray: 1.0,4.0;" x1="210.5" x2="210.5" y1="251.7188" y2="293.5547"/><line style="stroke: #A80036; stroke-width: 1.0;" x1="210.5" x2="210.5" y1="293.5547" y2="410.9609"/><line style="stroke: #A80036; stroke-width: 1.0;" x1="497" x2="497" y1="87.6094" y2="251.7188"/><line style="stroke: #A80036; stroke-width: 1.0; stroke-dasharray: 1.0,4.0;" x1="497" x2="497" y1="251.7188" y2="293.5547"/><line style="stroke: #A80036; stroke-width: 1.0;" x1="497" x2="497" y1="293.5547" y2="410.9609"/><line style="stroke: #A80036; stroke-width: 1.0;" x1="655" x2="655" y1="87.6094" y2="251.7188"/><line style="stroke: #A80036; stroke-width: 1.0; stroke-dasharray: 1.0,4.0;" x1="655" x2="655" y1="251.7188" y2="293.5547"/><line style="stroke: #A80036; stroke-width: 1.0;" x1="655" x2="655" y1="293.5547" y2="410.9609"/><line style="stroke: #A80036; stroke-width: 1.0;" x1="717" x2="717" y1="87.6094" y2="251.7188"/><line style="stroke: #A80036; stroke-width: 1.0; stroke-dasharray: 1.0,4.0;" x1="717" x2="717" y1="251.7188" y2="293.5547"/><line style="stroke: #A80036; stroke-width: 1.0;" x1="717" x2="717" y1="293.5547" y2="410.9609"/><text fill="#000000" font-family="sans-serif" font-size="14" lengthAdjust="spacingAndGlyphs" textLength="36" x="8" y="84.5332">Client</text><ellipse cx="29" cy="13" fill="#FEFECE" filter="url(#f1arm7gw2rhsiu)" rx="8" ry="8" style="stroke: #A80036; stroke-width: 2.0;"/><path d="M29,21 L29,48 M16,29 L42,29 M29,48 L16,63 M29,48 L42,63 " fill="none" filter="url(#f1arm7gw2rhsiu)" style="stroke: #A80036; stroke-width: 2.0;"/><text fill="#000000" font-family="sans-serif" font-size="14" lengthAdjust="spacingAndGlyphs" textLength="36" x="8" y="424.4941">Client</text><ellipse cx="29" cy="437.5703" fill="#FEFECE" filter="url(#f1arm7gw2rhsiu)" rx="8" ry="8" style="stroke: #A80036; stroke-width: 2.0;"/><path d="M29,445.5703 L29,472.5703 M16,453.5703 L42,453.5703 M29,472.5703 L16,487.5703 M29,472.5703 L42,487.5703 " fill="none" filter="url(#f1arm7gw2rhsiu)" style="stroke: #A80036; stroke-width: 2.0;"/><rect fill="#FEFECE" filter="url(#f1arm7gw2rhsiu)" height="31.6094" style="stroke: #A80036; stroke-width: 1.5;" width="69" x="174.5" y="51"/><text fill="#000000" font-family="sans-serif" font-size="14" lengthAdjust="spacingAndGlyphs" textLength="55" x="181.5" y="72.5332">FINT API</text><rect fill="#FEFECE" filter="url(#f1arm7gw2rhsiu)" height="31.6094" style="stroke: #A80036; stroke-width: 1.5;" width="69" x="174.5" y="409.9609"/><text fill="#000000" font-family="sans-serif" font-size="14" lengthAdjust="spacingAndGlyphs" textLength="55" x="181.5" y="431.4941">FINT API</text><rect fill="#FEFECE" filter="url(#f1arm7gw2rhsiu)" height="31.6094" style="stroke: #A80036; stroke-width: 1.5;" width="126" x="432" y="51"/><text fill="#000000" font-family="sans-serif" font-size="14" lengthAdjust="spacingAndGlyphs" textLength="112" x="439" y="72.5332">FINT Provider API</text><rect fill="#FEFECE" filter="url(#f1arm7gw2rhsiu)" height="31.6094" style="stroke: #A80036; stroke-width: 1.5;" width="126" x="432" y="409.9609"/><text fill="#000000" font-family="sans-serif" font-size="14" lengthAdjust="spacingAndGlyphs" textLength="112" x="439" y="431.4941">FINT Provider API</text><rect fill="#FEFECE" filter="url(#f1arm7gw2rhsiu)" height="31.6094" style="stroke: #A80036; stroke-width: 1.5;" width="64" x="621" y="51"/><text fill="#000000" font-family="sans-serif" font-size="14" lengthAdjust="spacingAndGlyphs" textLength="50" x="628" y="72.5332">Adapter</text><rect fill="#FEFECE" filter="url(#f1arm7gw2rhsiu)" height="31.6094" style="stroke: #A80036; stroke-width: 1.5;" width="64" x="621" y="409.9609"/><text fill="#000000" font-family="sans-serif" font-size="14" lengthAdjust="spacingAndGlyphs" textLength="50" x="628" y="431.4941">Adapter</text><text fill="#000000" font-family="sans-serif" font-size="14" lengthAdjust="spacingAndGlyphs" textLength="30" x="699" y="84.5332">HRM</text><path d="M699,34 C699,24 717,24 717,24 C717,24 735,24 735,34 L735,60 C735,70 717,70 717,70 C717,70 699,70 699,60 L699,34 " fill="#FEFECE" filter="url(#f1arm7gw2rhsiu)" style="stroke: #000000; stroke-width: 1.5;"/><path d="M699,34 C699,44 717,44 717,44 C717,44 735,44 735,34 " fill="none" style="stroke: #000000; stroke-width: 1.5;"/><text fill="#000000" font-family="sans-serif" font-size="14" lengthAdjust="spacingAndGlyphs" textLength="30" x="699" y="424.4941">HRM</text><path d="M699,437.5703 C699,427.5703 717,427.5703 717,427.5703 C717,427.5703 735,427.5703 735,437.5703 L735,463.5703 C735,473.5703 717,473.5703 717,473.5703 C717,473.5703 699,473.5703 699,463.5703 L699,437.5703 " fill="#FEFECE" filter="url(#f1arm7gw2rhsiu)" style="stroke: #000000; stroke-width: 1.5;"/><path d="M699,437.5703 C699,447.5703 717,447.5703 717,447.5703 C717,447.5703 735,447.5703 735,437.5703 " fill="none" style="stroke: #000000; stroke-width: 1.5;"/><polygon fill="#A80036" points="199,115.9609,209,119.9609,199,123.9609,203,119.9609" style="stroke: #A80036; stroke-width: 1.0;"/><line style="stroke: #A80036; stroke-width: 1.0;" x1="29" x2="205" y1="119.9609" y2="119.9609"/><text fill="#000000" font-family="sans-serif" font-size="13" lengthAdjust="spacingAndGlyphs" textLength="88" x="36" y="115.1045">POST /fastlonn</text><polygon fill="#A80036" points="485,162.6641,495,166.6641,485,170.6641,489,166.6641" style="stroke: #A80036; stroke-width: 1.0;"/><line style="stroke: #A80036; stroke-width: 1.0;" x1="211" x2="491" y1="166.6641" y2="166.6641"/><text fill="#000000" font-family="sans-serif" font-size="13" lengthAdjust="spacingAndGlyphs" textLength="127" x="218" y="145.4561">UPDATE_FASTLONN</text><text fill="#000000" font-family="sans-serif" font-size="13" lengthAdjust="spacingAndGlyphs" textLength="103" x="218" y="161.8076">(DOWNSTREAM)</text><polygon fill="#A80036" points="40,193.0156,30,197.0156,40,201.0156,36,197.0156" style="stroke: #A80036; stroke-width: 1.0;"/><line style="stroke: #A80036; stroke-width: 1.0; stroke-dasharray: 2.0,2.0;" x1="34" x2="210" y1="197.0156" y2="197.0156"/><text fill="#000000" font-family="sans-serif" font-size="13" lengthAdjust="spacingAndGlyphs" textLength="158" x="46" y="192.1592">202 Location: /status/{uuid}</text><line style="stroke: #A80036; stroke-width: 2.0;" x1="637" x2="647" y1="238.7188" y2="248.7188"/><line style="stroke: #A80036; stroke-width: 2.0;" x1="637" x2="647" y1="248.7188" y2="238.7188"/><line style="stroke: #A80036; stroke-width: 1.0;" x1="497" x2="642" y1="243.7188" y2="243.7188"/><text fill="#000000" font-family="sans-serif" font-size="13" lengthAdjust="spacingAndGlyphs" textLength="127" x="504" y="222.5107">UPDATE_FASTLONN</text><text fill="#000000" font-family="sans-serif" font-size="13" lengthAdjust="spacingAndGlyphs" textLength="134" x="504" y="238.8623">(SENT_TO_ADAPTER)</text><text fill="#000000" font-family="sans-serif" font-size="11" lengthAdjust="spacingAndGlyphs" textLength="63" x="341.5" y="277.1377">120 seconds</text><polygon fill="#A80036" points="222,328.2578,212,332.2578,222,336.2578,218,332.2578" style="stroke: #A80036; stroke-width: 1.0;"/><line style="stroke: #A80036; stroke-width: 1.0;" x1="216" x2="496" y1="332.2578" y2="332.2578"/><text fill="#000000" font-family="sans-serif" font-size="13" lengthAdjust="spacingAndGlyphs" textLength="127" x="228" y="311.0498">UPDATE_FASTLONN</text><text fill="#000000" font-family="sans-serif" font-size="13" lengthAdjust="spacingAndGlyphs" textLength="262" x="228" y="327.4014">NO_RESPONSE_FROM_ADAPTER,ERROR</text><polygon fill="#A80036" points="199,358.6094,209,362.6094,199,366.6094,203,362.6094" style="stroke: #A80036; stroke-width: 1.0;"/><line style="stroke: #A80036; stroke-width: 1.0;" x1="29" x2="205" y1="362.6094" y2="362.6094"/><text fill="#000000" font-family="sans-serif" font-size="13" lengthAdjust="spacingAndGlyphs" textLength="106" x="36" y="357.7529">GET /status/{uuid}</text><polygon fill="#FF0000" points="40,388.9609,30,392.9609,40,396.9609,36,392.9609" style="stroke: #FF0000; stroke-width: 1.0;"/><line style="stroke: #FF0000; stroke-width: 1.0; stroke-dasharray: 2.0,2.0;" x1="34" x2="210" y1="392.9609" y2="392.9609"/><text fill="#000000" font-family="sans-serif" font-size="13" lengthAdjust="spacingAndGlyphs" textLength="113" x="46" y="388.1045">500 "Event expired"</text><!--MD5=[ff4b0f668c5a1e535c637bbcf9472a8a]
@startuml timeout
actor Client
participant "FINT API" as consumer
participant "FINT Provider API" as provider
participant Adapter
database HRM

Client -> consumer: POST /fastlonn
consumer -> provider: UPDATE_FASTLONN\n(DOWNSTREAM)
Client <- - consumer: 202 Location: /status/{uuid}
provider ->x Adapter: UPDATE_FASTLONN\n(SENT_TO_ADAPTER)
... 120 seconds ...
consumer <- provider: UPDATE_FASTLONN\nNO_RESPONSE_FROM_ADAPTER,ERROR
Client -> consumer: GET /status/{uuid}
Client <-[#red]- consumer: 500 "Event expired"
@enduml

PlantUML version 1.2019.11(Sun Sep 22 12:02:15 CEST 2019)
(GPL source distribution)
Java Runtime: OpenJDK Runtime Environment
JVM: OpenJDK 64-Bit Server VM
Java Version: 11.0.5+10-LTS
Operating System: Windows 10
Default Encoding: Cp1252
Language: en
Country: US
--></g></svg>