<?xml version="1.0" encoding="UTF-8"?>
<svg width="1063px" height="835px" viewBox="0 0 1063 835" version="1.1" xmlns="http://www.w3.org/2000/svg" xmlns:xlink="http://www.w3.org/1999/xlink">
    <!-- Generator: Sketch 61.2 (89653) - https://sketch.com -->
    <title>event-flow</title>
    <desc>Created with Sketch.</desc>
    <defs>
        <filter x="-1.1%" y="-2.2%" width="102.2%" height="104.4%" filterUnits="objectBoundingBox" id="filter-1">
            <feOffset dx="0" dy="2" in="SourceAlpha" result="shadowOffsetOuter1"></feOffset>
            <feGaussianBlur stdDeviation="2" in="shadowOffsetOuter1" result="shadowBlurOuter1"></feGaussianBlur>
            <feColorMatrix values="0 0 0 0 0   0 0 0 0 0   0 0 0 0 0  0 0 0 0.5 0" type="matrix" in="shadowBlurOuter1" result="shadowMatrixOuter1"></feColorMatrix>
            <feMerge>
                <feMergeNode in="shadowMatrixOuter1"></feMergeNode>
                <feMergeNode in="SourceGraphic"></feMergeNode>
            </feMerge>
        </filter>
    </defs>
    <g id="felleskomponet-illustrasjoner" stroke="none" stroke-width="1" fill="none" fill-rule="evenodd">
        <g id="event-flow" filter="url(#filter-1)" transform="translate(-8.000000, 5.000000)">
            <g id="event-flow-/-upstream-arrow-error" transform="translate(643.000000, 476.000000)">
                <g id="upstream-arrow-error">
                    <polygon id="Path" stroke="#CF202E" stroke-width="2" points="0 120 0 38.3208544 41.5 0 83 38.3208544 83 120"></polygon>
                    <text id="NO_RESPONSE_-FROM_PR" fill="#CF202E" font-family="Roboto-Regular, Roboto" font-size="10" font-weight="normal" letter-spacing="0.0937500037">
                        <tspan x="4.34521482" y="48">NO_RESPONSE_</tspan>
                        <tspan x="27.7866211" y="61">FROM</tspan>
                        <tspan x="15.3305664" y="74">_PROVIDER</tspan>
                    </text>
                </g>
            </g>
            <g id="event-flow-/-upstream-arrow-error" transform="translate(739.000000, 476.000000)">
                <g id="upstream-arrow-error">
                    <polygon id="Path" stroke="#CF202E" stroke-width="2" points="0 120 0 38.3208544 41.5 0 83 38.3208544 83 120"></polygon>
                    <text id="NO_RESPONSE_-FROM_PR" fill="#CF202E" font-family="Roboto-Regular, Roboto" font-size="10" font-weight="normal" letter-spacing="0.0937500037">
                        <tspan x="15.3305664" y="48">PROVIDER_</tspan>
                        <tspan x="17.4672851" y="61">REJECTED</tspan>
                    </text>
                </g>
            </g>
            <g id="event-flow-/-upstream-arrow-error" transform="translate(834.000000, 476.000000)">
                <g id="upstream-arrow-error">
                    <polygon id="Path" stroke="#CF202E" stroke-width="2" points="0 120 0 38.3208544 41.5 0 83 38.3208544 83 120"></polygon>
                    <text id="NO_RESPONSE_-FROM_PR" fill="#CF202E" font-family="Roboto-Regular, Roboto" font-size="10" font-weight="normal" letter-spacing="0.0937500037">
                        <tspan x="15.3305664" y="48">PROVIDER_</tspan>
                        <tspan x="32.0205078" y="61">NOT</tspan>
                        <tspan x="10.8696289" y="74">_CONFIRMED</tspan>
                    </text>
                </g>
            </g>
            <g id="event-flow-/-upstream-arrow-normal" transform="translate(440.152029, 81.500000)">
                <g id="upstream-arrow-normal">
                    <polygon id="Path" stroke="#3D85C6" stroke-width="2" points="0 120 0 45.529011 41.5 0 83 45.529011 83 120"></polygon>
                    <text id="TEST-TEST-TEST" fill="#3D85C6" font-family="Roboto-Regular, Roboto" font-size="10" font-weight="normal" letter-spacing="0.0937500037">
                        <tspan x="20.6635742" y="49">SENT_TO</tspan>
                        <tspan x="22.7705078" y="62">_CLIENT</tspan>
                    </text>
                </g>
            </g>
            <g id="event-flow-/-upstream-arrow-error" transform="translate(929.000000, 476.000000)">
                <g id="upstream-arrow-error">
                    <polygon id="Path" stroke="#CF202E" stroke-width="2" points="0 120 0 38.3208544 41.5 0 83 38.3208544 83 120"></polygon>
                    <text id="NO_RESPONSE_-FROM_PR" fill="#CF202E" font-family="Roboto-Regular, Roboto" font-size="10" font-weight="normal" letter-spacing="0.0937500037">
                        <tspan x="17.0083008" y="48">UNABLED_</tspan>
                        <tspan x="13.262207" y="61">TO_DELIVER</tspan>
                    </text>
                </g>
            </g>
            <g id="event-flow-/-downstream-arrow-normal" transform="translate(341.152029, 81.500000)">
                <g id="downstream-arrow-normal">
                    <polygon id="Path" stroke="#8CC640" stroke-width="2" points="83 2.03610787e-14 83 73.8503974 41.5 119 0 73.8503974 0 0"></polygon>
                    <text id="TEST-TEST-TEST" fill="#8CC640" font-family="Roboto-Regular, Roboto" font-size="10" font-weight="normal" letter-spacing="0.0937500037">
                        <tspan x="29.9536133" y="20">NEW</tspan>
                    </text>
                </g>
            </g>
            <g id="provider" transform="translate(217.152029, 0.500000)">
                <rect id="Rectangle" stroke="#FFFFFF" x="0" y="0" width="411" height="65" rx="6"></rect>
                <text id="Client-/-CacheServic" fill="#FFFFFF" font-family="Roboto-Regular, Roboto" font-size="24" font-weight="normal" letter-spacing="0.225000009">
                    <tspan x="87.6785155" y="43">Client / CacheService</tspan>
                </text>
            </g>
            <g id="client-cacheservice" transform="translate(217.152029, 663.500000)">
                <rect id="Rectangle" stroke="#FFFFFF" x="0" y="0" width="411" height="65" rx="6"></rect>
                <text id="Provider" fill="#FFFFFF" font-family="Roboto-Regular, Roboto" font-size="24" font-weight="normal" letter-spacing="0.225000009">
                    <tspan x="159.846094" y="43">Provider</tspan>
                </text>
            </g>
            <g id="event-flow-/-downstream-arrow-normal" transform="translate(341.152029, 287.500000)">
                <g id="downstream-arrow-normal">
                    <polygon id="Path" stroke="#8CC640" stroke-width="2" points="83 2.03610787e-14 83 73.8503974 41.5 119 0 73.8503974 0 0"></polygon>
                    <text id="TEST-TEST-TEST" fill="#8CC640" font-family="Roboto-Regular, Roboto" font-size="10" font-weight="normal" letter-spacing="0.0937500037">
                        <tspan x="21.3657226" y="20">CACHED</tspan>
                    </text>
                </g>
            </g>
            <g id="event-flow-/-downstream-arrow-normal" transform="translate(241.152029, 287.500000)">
                <g id="downstream-arrow-normal">
                    <polygon id="Path" stroke="#8CC640" stroke-width="2" points="83 2.03610787e-14 83 73.8503974 41.5 119 0 73.8503974 0 0"></polygon>
                    <text id="TEST-TEST-TEST" fill="#8CC640" font-family="Roboto-Regular, Roboto" font-size="10" font-weight="normal" letter-spacing="0.0937500037">
                        <tspan x="5.93408201" y="20">DOWNSTREAM</tspan>
                        <tspan x="22.425293" y="33">_QUEUE</tspan>
                    </text>
                </g>
            </g>
            <g id="event-flow-/-downstream-arrow-normal" transform="translate(241.152029, 407.500000)">
                <g id="downstream-arrow-normal">
                    <polygon id="Path" stroke="#8CC640" stroke-width="2" points="83 2.03610787e-14 83 73.8503974 41.5 119 0 73.8503974 0 0"></polygon>
                    <text id="TEST-TEST-TEST" fill="#8CC640" font-family="Roboto-Regular, Roboto" font-size="10" font-weight="normal" letter-spacing="0.0937500037">
                        <tspan x="14.6357422" y="20">DELIVERED</tspan>
                        <tspan x="32.3168945" y="33">_TO</tspan>
                        <tspan x="14.3305664" y="46">_PROVIDER</tspan>
                    </text>
                </g>
            </g>
            <g id="event-flow-/-downstream-arrow-normal" transform="translate(241.152029, 527.500000)">
                <g id="downstream-arrow-normal">
                    <polygon id="Path" stroke="#8CC640" stroke-width="2" points="83 2.03610787e-14 83 73.8503974 41.5 119 0 73.8503974 0 0"></polygon>
                    <text id="TEST-TEST-TEST" fill="#8CC640" font-family="Roboto-Regular, Roboto" font-size="10" font-weight="normal" letter-spacing="0.0937500037">
                        <tspan x="14.3305664" y="20">PROVIDER_</tspan>
                        <tspan x="15.7836914" y="33">ACCEPTED</tspan>
                    </text>
                </g>
            </g>
            <g id="event-flow-/-downstream-arrow-error" transform="translate(150.152029, 527.500000)">
                <g id="downstream-arrow-error">
                    <text id="PROVIDER_-RESPONSE_" fill="#CF202E" font-family="Roboto-Regular, Roboto" font-size="10" font-weight="normal" letter-spacing="0.0937500037">
                        <tspan x="15.3305664" y="20">PROVIDER_</tspan>
                        <tspan x="13.7338867" y="33">RESPONSE_</tspan>
                        <tspan x="18.4736328" y="46">OPRHANT</tspan>
                    </text>
                    <polygon id="Path" stroke="#CF202E" stroke-width="2" points="83 2.03610787e-14 83 73.8503974 41.5 119 0 73.8503974 0 0"></polygon>
                </g>
            </g>
            <g id="event-flow-/-upstream-arrow-normal" transform="translate(440.152029, 287.500000)">
                <g id="upstream-arrow-normal">
                    <polygon id="Path" stroke="#3D85C6" stroke-width="2" points="0 120 0 45.529011 41.5 0 83 45.529011 83 120"></polygon>
                    <text id="TEST-TEST-TEST" fill="#3D85C6" font-family="Roboto-Regular, Roboto" font-size="10" font-weight="normal" letter-spacing="0.0937500037">
                        <tspan x="23.3862305" y="49">CACHE_</tspan>
                        <tspan x="16.0537109" y="62">RESPONSE</tspan>
                    </text>
                </g>
            </g>
            <g id="event-flow-/-upstream-arrow-normal" transform="translate(534.152029, 287.500000)">
                <g id="upstream-arrow-normal">
                    <polygon id="Path" stroke="#3D85C6" stroke-width="2" points="0 120 0 45.529011 41.5 0 83 45.529011 83 120"></polygon>
                    <text id="TEST-TEST-TEST" fill="#3D85C6" font-family="Roboto-Regular, Roboto" font-size="10" font-weight="normal" letter-spacing="0.0937500037">
                        <tspan x="15.1259765" y="49">UPSTREAM</tspan>
                        <tspan x="21.3032226" y="62">_QUEUE/</tspan>
                        <tspan x="28.3652344" y="75">TEMP</tspan>
                        <tspan x="12.8061523" y="88">_UPSTREAM</tspan>
                        <tspan x="23.425293" y="101">_QUEUE</tspan>
                    </text>
                </g>
            </g>
            <g id="event-flow-/-upstream-arrow-normal" transform="translate(534.152029, 527.500000)">
                <g id="upstream-arrow-normal">
                    <polygon id="Path" stroke="#3D85C6" stroke-width="2" points="0 120 0 45.529011 41.5 0 83 45.529011 83 120"></polygon>
                    <text id="TEST-TEST-TEST" fill="#3D85C6" font-family="Roboto-Regular, Roboto" font-size="10" font-weight="normal" letter-spacing="0.0937500037">
                        <tspan x="23.3862305" y="49">CACHE_</tspan>
                        <tspan x="16.0537109" y="62">RESPONSE</tspan>
                    </text>
                </g>
            </g>
            <rect id="Rectangle" stroke="#FFFFFF" x="340.152029" y="423.5" width="159" height="224" rx="6"></rect>
            <text id="Cache" fill="#FFFFFF" font-family="Roboto-Regular, Roboto" font-size="24" font-weight="normal" letter-spacing="0.225000009">
                <tspan x="388.357107" y="536.5">Cache</tspan>
            </text>
            <line x1="382.652029" y1="285.5" x2="382.652029" y2="201.5" id="Line" stroke="#FFFFFF" stroke-width="2" fill="#FFFFFF" stroke-linecap="square"></line>
            <line x1="272.652029" y1="285.5" x2="272.652029" y2="246" id="Line-Copy-2" stroke="#FFFFFF" stroke-width="2" fill="#FFFFFF" stroke-linecap="square"></line>
            <line x1="684.5" y1="474" x2="684.5" y2="395" id="Line-Copy-4" stroke="#FFFFFF" stroke-width="2" stroke-linecap="square"></line>
            <line x1="192.152029" y1="746.5" x2="191.652029" y2="648" id="Line-Copy-8" stroke="#FFFFFF" stroke-width="2" stroke-linecap="square"></line>
            <line x1="143" y1="762" x2="143" y2="476.5" id="Line-Copy-10" stroke="#FFFFFF" stroke-width="2" stroke-linecap="square"></line>
            <line x1="124" y1="779.5" x2="124" y2="460.5" id="Line-Copy-12" stroke="#FFFFFF" stroke-width="2" stroke-linecap="square"></line>
            <line x1="108.152029" y1="799.5" x2="108.15" y2="444.5625" id="Line-Copy-14" stroke="#FFFFFF" stroke-width="2" stroke-linecap="square"></line>
            <line x1="83" y1="819" x2="83" y2="332" id="Line-Copy-16" stroke="#FFFFFF" stroke-width="2" stroke-linecap="square"></line>
            <line x1="643.402029" y1="746.5" x2="643.152029" y2="638.5" id="Line-Copy-9" stroke="#FFFFFF" stroke-width="2" stroke-linecap="square"></line>
            <line x1="684.125" y1="763" x2="684" y2="598" id="Line-Copy-11" stroke="#FFFFFF" stroke-width="2" stroke-linecap="square"></line>
            <line x1="780.46875" y1="778.53125" x2="779.40625" y2="598" id="Line-Copy-13" stroke="#FFFFFF" stroke-width="2" stroke-linecap="square"></line>
            <line x1="875" y1="800.5" x2="875.40625" y2="598" id="Line-Copy-15" stroke="#FFFFFF" stroke-width="2" stroke-linecap="square"></line>
            <line x1="970" y1="820.171875" x2="970.078125" y2="598" id="Line-Copy-17" stroke="#FFFFFF" stroke-width="2" stroke-linecap="square"></line>
            <line x1="780.5" y1="474" x2="780.5" y2="396" id="Line-Copy-5" stroke="#FFFFFF" stroke-width="2" stroke-linecap="square"></line>
            <line x1="875.5" y1="474" x2="875.5" y2="396" id="Line-Copy-6" stroke="#FFFFFF" stroke-width="2" stroke-linecap="square"></line>
            <line x1="970.5" y1="474" x2="970.5" y2="396" id="Line-Copy-7" stroke="#FFFFFF" stroke-width="2" stroke-linecap="square"></line>
            <line x1="575.5" y1="286" x2="575.5" y2="245" id="Line-Copy-3" stroke="#FFFFFF" stroke-width="2" fill="#FFFFFF" stroke-linecap="square"></line>
            <line x1="970.5" y1="394" x2="619" y2="394" id="Line-3" stroke="#FFFFFF" stroke-width="2" stroke-linecap="square"></line>
            <line x1="481.652029" y1="286" x2="481.652029" y2="203.5" id="Line-Copy" stroke="#FFFFFF" stroke-width="2" fill="#FFFFFF" stroke-linecap="square"></line>
            <line x1="271.652029" y1="245" x2="574.5" y2="245" id="Line-2" stroke="#FFFFFF" stroke-width="2" fill="#FFFFFF" stroke-linecap="square"></line>
            <line x1="643.152029" y1="746.5" x2="192.152029" y2="746.75" id="Line-3" stroke="#FFFFFF" stroke-width="2" stroke-linecap="square"></line>
            <line x1="684.152029" y1="763.5" x2="143" y2="762.25" id="Line-3-Copy-4" stroke="#FFFFFF" stroke-width="2" stroke-linecap="square"></line>
            <line x1="780.5" y1="779.5" x2="124" y2="779.75" id="Line-3-Copy-5" stroke="#FFFFFF" stroke-width="2" stroke-linecap="square"></line>
            <line x1="874.152029" y1="800.5" x2="108.152029" y2="800.25" id="Line-3-Copy-6" stroke="#FFFFFF" stroke-width="2" stroke-linecap="square"></line>
            <line x1="971" y1="820.5" x2="83" y2="820.25" id="Line-3-Copy-8" stroke="#FFFFFF" stroke-width="2" stroke-linecap="square"></line>
            <line x1="643.152029" y1="638.5" x2="611.152029" y2="638.25" id="Line-3-Copy" stroke="#FFFFFF" stroke-width="2" stroke-linecap="square"></line>
            <line x1="239.152029" y1="444.5" x2="109.152029" y2="444.5" id="Line-3-Copy" stroke="#FFFFFF" stroke-width="2" stroke-linecap="square"></line>
            <line x1="240.152029" y1="332" x2="83" y2="332" id="Line-3-Copy-7" stroke="#FFFFFF" stroke-width="2" stroke-linecap="square"></line>
            <line x1="239.152029" y1="460.5" x2="124" y2="460" id="Line-3-Copy-2" stroke="#FFFFFF" stroke-width="2" stroke-linecap="square"></line>
            <line x1="239.152029" y1="476.5" x2="144.652029" y2="476.5" id="Line-3-Copy-3" stroke="#FFFFFF" stroke-width="2" stroke-linecap="square"></line>
            <g id="downstream" fill="#FFFFFF">
                <path id="Line-4" d="M48.1535533,-2.501523 L53.1535523,-2.49847607 L53.1520289,0.00152346102 L52.669,792.001 L64.6693941,792.008841 L50.1517246,821 L35.6693995,791.991169 L47.669,791.998 L48.1520298,-0.00152346102 L48.1535533,-2.501523 Z" fill-rule="nonzero"></path>
                <text id="Downstream" transform="translate(24.500000, 360.000000) rotate(-90.000000) translate(-24.500000, -360.000000) " font-family="Roboto-Regular, Roboto" font-size="36" font-weight="normal" letter-spacing="0.337500013">
                    <tspan x="-79.9140626" y="374">Downstream</tspan>
                </text>
            </g>
            <g id="upstream" transform="translate(1053.000000, 410.500000) rotate(-180.000000) translate(-1053.000000, -410.500000) translate(1027.000000, 0.000000)" fill="#FFFFFF">
                <path id="Line-4" d="M48.1535533,-2.501523 L53.1535523,-2.49847607 L53.1520289,0.00152346102 L52.669,792.001 L64.6693941,792.008841 L50.1517246,821 L35.6693995,791.991169 L47.669,791.998 L48.1520298,-0.00152346102 L48.1535533,-2.501523 Z" fill-rule="nonzero"></path>
                <text id="Upstream" transform="translate(24.500000, 360.000000) rotate(-90.000000) translate(-24.500000, -360.000000) " font-family="Roboto-Regular, Roboto" font-size="36" font-weight="normal" letter-spacing="0.337500013">
                    <tspan x="-56.0482422" y="374">Upstream</tspan>
                </text>
            </g>
            <g id="event-flow---choice" transform="translate(366.652029, 237.000000)" fill="#FFFFFF">
                <path d="M16,16 L-3.983197e-16,8 L16,1.77635684e-15 L32,8 L16,16 L16,16 Z" id="Combined-Shape"></path>
            </g>
            <g id="event-flow---choice" transform="translate(225.152029, 324.000000)" fill="#FFFFFF">
                <path d="M16,16 L-3.983197e-16,8 L16,1.77635684e-15 L32,8 L16,16 L16,16 Z" id="Combined-Shape"></path>
            </g>
            <g id="event-flow---choice" transform="translate(225.152029, 436.500000)" fill="#FFFFFF">
                <path d="M16,16 L-3.983197e-16,8 L16,1.77635684e-15 L32,8 L16,16 L16,16 Z" id="Combined-Shape"></path>
            </g>
            <g id="event-flow---choice" transform="translate(225.152029, 452.500000)" fill="#FFFFFF">
                <path d="M16,16 L-3.983197e-16,8 L16,1.77635684e-15 L32,8 L16,16 L16,16 Z" id="Combined-Shape"></path>
            </g>
            <g id="event-flow---choice" transform="translate(225.152029, 468.500000)" fill="#FFFFFF">
                <path d="M16,16 L-3.983197e-16,8 L16,1.77635684e-15 L32,8 L16,16 L16,16 Z" id="Combined-Shape"></path>
            </g>
            <g id="event-flow---choice" transform="translate(601.152029, 630.500000)" fill="#FFFFFF">
                <path d="M16,16 L-3.983197e-16,8 L16,1.77635684e-15 L32,8 L16,16 L16,16 Z" id="Combined-Shape"></path>
            </g>
            <g id="event-flow---choice" transform="translate(465.652029, 237.000000)" fill="#FFFFFF">
                <path d="M16,16 L-3.983197e-16,8 L16,1.77635684e-15 L32,8 L16,16 L16,16 Z" id="Combined-Shape"></path>
            </g>
        </g>
    </g>
</svg>