<svg width="412" height="84" viewBox="0 0 412 84" fill="none" xmlns="http://www.w3.org/2000/svg">
<g clip-path="url(#clip0_2001_3100)">
<path d="M94.9 0.300049V15.3C110.6 15.3 123.2 29 121.4 45C120 57.2 110.2 67.1 97.9 68.5C81.8 70.3 68.1999 57.7 68.1999 42H53.2C53.2 65 71.9 83.7 94.9 83.7C117.9 83.7 136.6 65 136.6 42C136.6 19 117.9 0.300049 94.9 0.300049Z" fill="#F76650"/>
<path d="M347.3 0H331.4V83.7H347.3V32.8L378.2 17.4V0.3L347.3 16.6V0Z" fill="#F76650"/>
<path d="M68.4 42.0001H83.4C83.4 18.1001 63.2 -1.19995 39 0.400052C16.9 1.80005 0 20.7001 0 42.8001V83.5001H15V42.6001C15 28.6001 25.6 16.5001 39.6 15.4001C55.2 14.2001 68.3 26.6001 68.3 42.0001H68.4Z" fill="#F76650"/>
<path d="M271.9 0.199951C248.9 0.199951 230.2 18.9 230.2 41.9C230.2 64.9 248.9 83.6 271.9 83.6C294.9 83.6 291.3 80 298.6 73.9V83.6H313.6V41.5999C313.4 18.7999 294.8 0.299951 271.9 0.299951V0.199951ZM271.9 67.8C257.2 67.8 245.2 55.7999 245.2 41.0999C245.2 26.3999 257.2 14.4 271.9 14.4C286.6 14.4 298.6 26.3999 298.6 41.0999C298.6 55.7999 286.6 67.8 271.9 67.8Z" fill="#F76650"/>
<path d="M411.7 0.199951H395.8V83.5H411.7V0.199951Z" fill="#F76650"/>
<path d="M184.4 64.5L159.7 0.300049H142.1L175.3 83.4H192.8L225.7 0.300049H208L184.4 64.5Z" fill="#F76650"/>
</g>
<defs>
<clipPath id="clip0_2001_3100">
<rect width="411.7" height="83.7" fill="white"/>
</clipPath>
</defs>
</svg>
