<?xml version="1.0" encoding="UTF-8"?>
<svg xmlns="http://www.w3.org/2000/svg" version="1.1" viewBox="0 0 411.7 83.7">
  <defs>
    <style>
      .cls-1 {
        fill: #f76650;
      }
    </style>
  </defs>
  <!-- Generator: Adobe Illustrator 28.7.1, SVG Export Plug-In . SVG Version: 1.2.0 Build 142)  -->
  <g>
    <g id="Layer_1">
      <g id="Layer_1-2" data-name="Layer_1">
        <g>
          <path class="cls-1" d="M94.9.3v15c15.7,0,28.3,13.7,26.5,29.7-1.4,12.2-11.2,22.1-23.5,23.5-16.1,1.8-29.7-10.8-29.7-26.5h-15c0,23,18.7,41.7,41.7,41.7s41.7-18.7,41.7-41.7S117.9.3,94.9.3h0Z"/>
          <polygon class="cls-1" points="347.3 0 331.4 0 331.4 83.7 347.3 83.7 347.3 32.8 378.2 17.4 378.2 .3 347.3 16.6 347.3 0"/>
          <path class="cls-1" d="M68.4,42h15C83.4,18.1,63.2-1.2,39,.4,16.9,1.8,0,20.7,0,42.8v40.7h15v-40.9c0-14,10.6-26.1,24.6-27.2,15.6-1.2,28.7,11.2,28.7,26.6h0Z"/>
          <path class="cls-1" d="M271.9.2c-23,0-41.7,18.7-41.7,41.7s18.7,41.7,41.7,41.7,19.4-3.6,26.7-9.7v9.7h15v-42h0c-.2-22.8-18.8-41.3-41.7-41.3h0ZM271.9,67.8c-14.7,0-26.7-12-26.7-26.7s12-26.7,26.7-26.7,26.7,12,26.7,26.7-12,26.7-26.7,26.7Z"/>
          <rect class="cls-1" x="395.8" y=".2" width="15.9" height="83.3"/>
          <polygon class="cls-1" points="184.4 64.5 159.7 .3 142.1 .3 175.3 83.4 192.8 83.4 225.7 .3 208 .3 184.4 64.5"/>
        </g>
      </g>
    </g>
  </g>
</svg>