<?xml version="1.0" encoding="UTF-8" standalone="no"?><svg xmlns="http://www.w3.org/2000/svg" xmlns:xlink="http://www.w3.org/1999/xlink" contentScriptType="application/ecmascript" contentStyleType="text/css" height="955px" preserveAspectRatio="none" style="width:986px;height:955px;" version="1.1" viewBox="0 0 986 955" width="986px" zoomAndPan="magnify"><defs><filter height="300%" id="fun1sdekjlpm6" width="300%" x="-1" y="-1"><feGaussianBlur result="blurOut" stdDeviation="2.0"/><feColorMatrix in="blurOut" result="blurOut2" type="matrix" values="0 0 0 0 0 0 0 0 0 0 0 0 0 0 0 0 0 0 .4 0"/><feOffset dx="4.0" dy="4.0" in="blurOut2" result="blurOut3"/><feBlend in="SourceGraphic" in2="blurOut3" mode="normal"/></filter></defs><g><line style="stroke: #A80036; stroke-width: 1.0;" x1="29" x2="29" y1="87.6094" y2="268.0703"/><line style="stroke: #A80036; stroke-width: 1.0; stroke-dasharray: 1.0,4.0;" x1="29" x2="29" y1="268.0703" y2="309.9063"/><line style="stroke: #A80036; stroke-width: 1.0;" x1="29" x2="29" y1="309.9063" y2="356.6094"/><line style="stroke: #A80036; stroke-width: 1.0; stroke-dasharray: 1.0,4.0;" x1="29" x2="29" y1="356.6094" y2="384.6094"/><line style="stroke: #A80036; stroke-width: 1.0;" x1="29" x2="29" y1="384.6094" y2="866.9375"/><line style="stroke: #A80036; stroke-width: 1.0;" x1="248.5" x2="248.5" y1="87.6094" y2="268.0703"/><line style="stroke: #A80036; stroke-width: 1.0; stroke-dasharray: 1.0,4.0;" x1="248.5" x2="248.5" y1="268.0703" y2="309.9063"/><line style="stroke: #A80036; stroke-width: 1.0;" x1="248.5" x2="248.5" y1="309.9063" y2="356.6094"/><line style="stroke: #A80036; stroke-width: 1.0; stroke-dasharray: 1.0,4.0;" x1="248.5" x2="248.5" y1="356.6094" y2="384.6094"/><line style="stroke: #A80036; stroke-width: 1.0;" x1="248.5" x2="248.5" y1="384.6094" y2="866.9375"/><line style="stroke: #A80036; stroke-width: 1.0;" x1="495" x2="495" y1="87.6094" y2="268.0703"/><line style="stroke: #A80036; stroke-width: 1.0; stroke-dasharray: 1.0,4.0;" x1="495" x2="495" y1="268.0703" y2="309.9063"/><line style="stroke: #A80036; stroke-width: 1.0;" x1="495" x2="495" y1="309.9063" y2="356.6094"/><line style="stroke: #A80036; stroke-width: 1.0; stroke-dasharray: 1.0,4.0;" x1="495" x2="495" y1="356.6094" y2="384.6094"/><line style="stroke: #A80036; stroke-width: 1.0;" x1="495" x2="495" y1="384.6094" y2="866.9375"/><line style="stroke: #A80036; stroke-width: 1.0;" x1="732" x2="732" y1="87.6094" y2="268.0703"/><line style="stroke: #A80036; stroke-width: 1.0; stroke-dasharray: 1.0,4.0;" x1="732" x2="732" y1="268.0703" y2="309.9063"/><line style="stroke: #A80036; stroke-width: 1.0;" x1="732" x2="732" y1="309.9063" y2="356.6094"/><line style="stroke: #A80036; stroke-width: 1.0; stroke-dasharray: 1.0,4.0;" x1="732" x2="732" y1="356.6094" y2="384.6094"/><line style="stroke: #A80036; stroke-width: 1.0;" x1="732" x2="732" y1="384.6094" y2="866.9375"/><line style="stroke: #A80036; stroke-width: 1.0;" x1="794" x2="794" y1="87.6094" y2="268.0703"/><line style="stroke: #A80036; stroke-width: 1.0; stroke-dasharray: 1.0,4.0;" x1="794" x2="794" y1="268.0703" y2="309.9063"/><line style="stroke: #A80036; stroke-width: 1.0;" x1="794" x2="794" y1="309.9063" y2="356.6094"/><line style="stroke: #A80036; stroke-width: 1.0; stroke-dasharray: 1.0,4.0;" x1="794" x2="794" y1="356.6094" y2="384.6094"/><line style="stroke: #A80036; stroke-width: 1.0;" x1="794" x2="794" y1="384.6094" y2="866.9375"/><text fill="#000000" font-family="sans-serif" font-size="14" lengthAdjust="spacingAndGlyphs" textLength="36" x="8" y="84.5332">Client</text><ellipse cx="29" cy="13" fill="#FEFECE" filter="url(#fun1sdekjlpm6)" rx="8" ry="8" style="stroke: #A80036; stroke-width: 2.0;"/><path d="M29,21 L29,48 M16,29 L42,29 M29,48 L16,63 M29,48 L42,63 " fill="none" filter="url(#fun1sdekjlpm6)" style="stroke: #A80036; stroke-width: 2.0;"/><text fill="#000000" font-family="sans-serif" font-size="14" lengthAdjust="spacingAndGlyphs" textLength="36" x="8" y="880.4707">Client</text><ellipse cx="29" cy="893.5469" fill="#FEFECE" filter="url(#fun1sdekjlpm6)" rx="8" ry="8" style="stroke: #A80036; stroke-width: 2.0;"/><path d="M29,901.5469 L29,928.5469 M16,909.5469 L42,909.5469 M29,928.5469 L16,943.5469 M29,928.5469 L42,943.5469 " fill="none" filter="url(#fun1sdekjlpm6)" style="stroke: #A80036; stroke-width: 2.0;"/><rect fill="#FEFECE" filter="url(#fun1sdekjlpm6)" height="31.6094" style="stroke: #A80036; stroke-width: 1.5;" width="69" x="212.5" y="51"/><text fill="#000000" font-family="sans-serif" font-size="14" lengthAdjust="spacingAndGlyphs" textLength="55" x="219.5" y="72.5332">FINT API</text><rect fill="#FEFECE" filter="url(#fun1sdekjlpm6)" height="31.6094" style="stroke: #A80036; stroke-width: 1.5;" width="69" x="212.5" y="865.9375"/><text fill="#000000" font-family="sans-serif" font-size="14" lengthAdjust="spacingAndGlyphs" textLength="55" x="219.5" y="887.4707">FINT API</text><rect fill="#FEFECE" filter="url(#fun1sdekjlpm6)" height="31.6094" style="stroke: #A80036; stroke-width: 1.5;" width="126" x="430" y="51"/><text fill="#000000" font-family="sans-serif" font-size="14" lengthAdjust="spacingAndGlyphs" textLength="112" x="437" y="72.5332">FINT Provider API</text><rect fill="#FEFECE" filter="url(#fun1sdekjlpm6)" height="31.6094" style="stroke: #A80036; stroke-width: 1.5;" width="126" x="430" y="865.9375"/><text fill="#000000" font-family="sans-serif" font-size="14" lengthAdjust="spacingAndGlyphs" textLength="112" x="437" y="887.4707">FINT Provider API</text><rect fill="#FEFECE" filter="url(#fun1sdekjlpm6)" height="31.6094" style="stroke: #A80036; stroke-width: 1.5;" width="64" x="698" y="51"/><text fill="#000000" font-family="sans-serif" font-size="14" lengthAdjust="spacingAndGlyphs" textLength="50" x="705" y="72.5332">Adapter</text><rect fill="#FEFECE" filter="url(#fun1sdekjlpm6)" height="31.6094" style="stroke: #A80036; stroke-width: 1.5;" width="64" x="698" y="865.9375"/><text fill="#000000" font-family="sans-serif" font-size="14" lengthAdjust="spacingAndGlyphs" textLength="50" x="705" y="887.4707">Adapter</text><text fill="#000000" font-family="sans-serif" font-size="14" lengthAdjust="spacingAndGlyphs" textLength="30" x="776" y="84.5332">HRM</text><path d="M776,34 C776,24 794,24 794,24 C794,24 812,24 812,34 L812,60 C812,70 794,70 794,70 C794,70 776,70 776,60 L776,34 " fill="#FEFECE" filter="url(#fun1sdekjlpm6)" style="stroke: #000000; stroke-width: 1.5;"/><path d="M776,34 C776,44 794,44 794,44 C794,44 812,44 812,34 " fill="none" style="stroke: #000000; stroke-width: 1.5;"/><text fill="#000000" font-family="sans-serif" font-size="14" lengthAdjust="spacingAndGlyphs" textLength="30" x="776" y="880.4707">HRM</text><path d="M776,893.5469 C776,883.5469 794,883.5469 794,883.5469 C794,883.5469 812,883.5469 812,893.5469 L812,919.5469 C812,929.5469 794,929.5469 794,929.5469 C794,929.5469 776,929.5469 776,919.5469 L776,893.5469 " fill="#FEFECE" filter="url(#fun1sdekjlpm6)" style="stroke: #000000; stroke-width: 1.5;"/><path d="M776,893.5469 C776,903.5469 794,903.5469 794,903.5469 C794,903.5469 812,903.5469 812,893.5469 " fill="none" style="stroke: #000000; stroke-width: 1.5;"/><polygon fill="#A80036" points="237,132.3125,247,136.3125,237,140.3125,241,136.3125" style="stroke: #A80036; stroke-width: 1.0;"/><line style="stroke: #A80036; stroke-width: 1.0;" x1="29" x2="243" y1="136.3125" y2="136.3125"/><text fill="#000000" font-family="sans-serif" font-size="13" lengthAdjust="spacingAndGlyphs" textLength="88" x="36" y="115.1045">POST /fastlonn</text><text fill="#000000" font-family="sans-serif" font-size="13" lengthAdjust="spacingAndGlyphs" textLength="145" x="36" y="131.4561">kildesystemId: ABCD123</text><polygon fill="#A80036" points="483,179.0156,493,183.0156,483,187.0156,487,183.0156" style="stroke: #A80036; stroke-width: 1.0;"/><line style="stroke: #A80036; stroke-width: 1.0;" x1="249" x2="489" y1="183.0156" y2="183.0156"/><text fill="#000000" font-family="sans-serif" font-size="13" lengthAdjust="spacingAndGlyphs" textLength="127" x="256" y="161.8076">UPDATE_FASTLONN</text><text fill="#000000" font-family="sans-serif" font-size="13" lengthAdjust="spacingAndGlyphs" textLength="103" x="256" y="178.1592">(DOWNSTREAM)</text><polygon fill="#A80036" points="40,209.3672,30,213.3672,40,217.3672,36,213.3672" style="stroke: #A80036; stroke-width: 1.0;"/><line style="stroke: #A80036; stroke-width: 1.0; stroke-dasharray: 2.0,2.0;" x1="34" x2="248" y1="213.3672" y2="213.3672"/><text fill="#000000" font-family="sans-serif" font-size="13" lengthAdjust="spacingAndGlyphs" textLength="158" x="46" y="208.5107">202 Location: /status/{uuid}</text><polygon fill="#A80036" points="720,256.0703,730,260.0703,720,264.0703,724,260.0703" style="stroke: #A80036; stroke-width: 1.0;"/><line style="stroke: #A80036; stroke-width: 1.0;" x1="495" x2="726" y1="260.0703" y2="260.0703"/><text fill="#000000" font-family="sans-serif" font-size="13" lengthAdjust="spacingAndGlyphs" textLength="127" x="502" y="238.8623">UPDATE_FASTLONN</text><text fill="#000000" font-family="sans-serif" font-size="13" lengthAdjust="spacingAndGlyphs" textLength="134" x="502" y="255.2139">(SENT_TO_ADAPTER)</text><text fill="#000000" font-family="sans-serif" font-size="11" lengthAdjust="spacingAndGlyphs" textLength="125" x="349" y="293.4893">normal successful update</text><polygon fill="#A80036" points="260,344.6094,250,348.6094,260,352.6094,256,348.6094" style="stroke: #A80036; stroke-width: 1.0;"/><line style="stroke: #A80036; stroke-width: 1.0;" x1="254" x2="494" y1="348.6094" y2="348.6094"/><text fill="#000000" font-family="sans-serif" font-size="13" lengthAdjust="spacingAndGlyphs" textLength="127" x="266" y="327.4014">UPDATE_FASTLONN</text><text fill="#000000" font-family="sans-serif" font-size="13" lengthAdjust="spacingAndGlyphs" textLength="222" x="266" y="343.7529">(SENT_TO_CONSUMER,ACCEPTED)</text><polygon fill="#A80036" points="237,419.3125,247,423.3125,237,427.3125,241,423.3125" style="stroke: #A80036; stroke-width: 1.0;"/><line style="stroke: #A80036; stroke-width: 1.0;" x1="29" x2="243" y1="423.3125" y2="423.3125"/><text fill="#000000" font-family="sans-serif" font-size="13" lengthAdjust="spacingAndGlyphs" textLength="88" x="36" y="402.1045">POST /fastlonn</text><text fill="#000000" font-family="sans-serif" font-size="13" lengthAdjust="spacingAndGlyphs" textLength="145" x="36" y="418.4561">kildesystemId: ABCD123</text><polygon fill="#A80036" points="483,466.0156,493,470.0156,483,474.0156,487,470.0156" style="stroke: #A80036; stroke-width: 1.0;"/><line style="stroke: #A80036; stroke-width: 1.0;" x1="249" x2="489" y1="470.0156" y2="470.0156"/><text fill="#000000" font-family="sans-serif" font-size="13" lengthAdjust="spacingAndGlyphs" textLength="127" x="256" y="448.8076">UPDATE_FASTLONN</text><text fill="#000000" font-family="sans-serif" font-size="13" lengthAdjust="spacingAndGlyphs" textLength="103" x="256" y="465.1592">(DOWNSTREAM)</text><polygon fill="#A80036" points="40,496.3672,30,500.3672,40,504.3672,36,500.3672" style="stroke: #A80036; stroke-width: 1.0;"/><line style="stroke: #A80036; stroke-width: 1.0; stroke-dasharray: 2.0,2.0;" x1="34" x2="248" y1="500.3672" y2="500.3672"/><text fill="#000000" font-family="sans-serif" font-size="13" lengthAdjust="spacingAndGlyphs" textLength="158" x="46" y="495.5107">202 Location: /status/{uuid}</text><polygon fill="#A80036" points="720,543.0703,730,547.0703,720,551.0703,724,547.0703" style="stroke: #A80036; stroke-width: 1.0;"/><line style="stroke: #A80036; stroke-width: 1.0;" x1="495" x2="726" y1="547.0703" y2="547.0703"/><text fill="#000000" font-family="sans-serif" font-size="13" lengthAdjust="spacingAndGlyphs" textLength="127" x="502" y="525.8623">UPDATE_FASTLONN</text><text fill="#000000" font-family="sans-serif" font-size="13" lengthAdjust="spacingAndGlyphs" textLength="134" x="502" y="542.2139">(SENT_TO_ADAPTER)</text><polygon fill="#A80036" points="506,589.7734,496,593.7734,506,597.7734,502,593.7734" style="stroke: #A80036; stroke-width: 1.0;"/><line style="stroke: #A80036; stroke-width: 1.0;" x1="500" x2="731" y1="593.7734" y2="593.7734"/><text fill="#000000" font-family="sans-serif" font-size="13" lengthAdjust="spacingAndGlyphs" textLength="127" x="512" y="572.5654">UPDATE_FASTLONN</text><text fill="#000000" font-family="sans-serif" font-size="13" lengthAdjust="spacingAndGlyphs" textLength="146" x="512" y="588.917">(ADAPTER_ACCEPTED)</text><polygon fill="#A80036" points="720,620.125,730,624.125,720,628.125,724,624.125" style="stroke: #A80036; stroke-width: 1.0;"/><line style="stroke: #A80036; stroke-width: 1.0; stroke-dasharray: 2.0,2.0;" x1="495" x2="726" y1="624.125" y2="624.125"/><text fill="#000000" font-family="sans-serif" font-size="13" lengthAdjust="spacingAndGlyphs" textLength="21" x="502" y="619.2686">200</text><path d="M737,637.125 L737,663.125 L974,663.125 L974,647.125 L964,637.125 L737,637.125 " fill="#FBFB77" filter="url(#fun1sdekjlpm6)" style="stroke: #A80036; stroke-width: 1.0;"/><path d="M964,637.125 L964,647.125 L974,647.125 L964,637.125 " fill="#FBFB77" style="stroke: #A80036; stroke-width: 1.0;"/><text fill="#000000" font-family="sans-serif" font-size="13" lengthAdjust="spacingAndGlyphs" textLength="216" x="743" y="655.6201">Adapter detects duplicate transaction</text><polygon fill="#A80036" points="506,707.1797,496,711.1797,506,715.1797,502,711.1797" style="stroke: #A80036; stroke-width: 1.0;"/><line style="stroke: #A80036; stroke-width: 1.0;" x1="500" x2="731" y1="711.1797" y2="711.1797"/><text fill="#000000" font-family="sans-serif" font-size="13" lengthAdjust="spacingAndGlyphs" textLength="127" x="512" y="689.9717">UPDATE_FASTLONN</text><text fill="#000000" font-family="sans-serif" font-size="13" lengthAdjust="spacingAndGlyphs" textLength="143" x="512" y="706.3232">(ADAPTER_REJECTED,</text><text fill="#FF0000" font-family="sans-serif" font-size="13" lengthAdjust="spacingAndGlyphs" textLength="62" x="659" y="706.3232">CONFLICT</text><text fill="#000000" font-family="sans-serif" font-size="13" lengthAdjust="spacingAndGlyphs" textLength="4" x="721" y="706.3232">)</text><polygon fill="#A80036" points="720,737.5313,730,741.5313,720,745.5313,724,741.5313" style="stroke: #A80036; stroke-width: 1.0;"/><line style="stroke: #A80036; stroke-width: 1.0; stroke-dasharray: 2.0,2.0;" x1="495" x2="726" y1="741.5313" y2="741.5313"/><text fill="#000000" font-family="sans-serif" font-size="13" lengthAdjust="spacingAndGlyphs" textLength="21" x="502" y="736.6748">200</text><polygon fill="#A80036" points="260,784.2344,250,788.2344,260,792.2344,256,788.2344" style="stroke: #A80036; stroke-width: 1.0;"/><line style="stroke: #A80036; stroke-width: 1.0;" x1="254" x2="494" y1="788.2344" y2="788.2344"/><text fill="#000000" font-family="sans-serif" font-size="13" lengthAdjust="spacingAndGlyphs" textLength="127" x="266" y="767.0264">UPDATE_FASTLONN</text><text fill="#000000" font-family="sans-serif" font-size="13" lengthAdjust="spacingAndGlyphs" textLength="148" x="266" y="783.3779">(SENT_TO_CONSUMER,</text><text fill="#FF0000" font-family="sans-serif" font-size="13" lengthAdjust="spacingAndGlyphs" textLength="62" x="418" y="783.3779">CONFLICT</text><text fill="#000000" font-family="sans-serif" font-size="13" lengthAdjust="spacingAndGlyphs" textLength="4" x="480" y="783.3779">)</text><polygon fill="#A80036" points="237,814.5859,247,818.5859,237,822.5859,241,818.5859" style="stroke: #A80036; stroke-width: 1.0;"/><line style="stroke: #A80036; stroke-width: 1.0;" x1="29" x2="243" y1="818.5859" y2="818.5859"/><text fill="#000000" font-family="sans-serif" font-size="13" lengthAdjust="spacingAndGlyphs" textLength="106" x="36" y="813.7295">GET /status/{uuid}</text><polygon fill="#FF0000" points="40,844.9375,30,848.9375,40,852.9375,36,848.9375" style="stroke: #FF0000; stroke-width: 1.0;"/><line style="stroke: #FF0000; stroke-width: 1.0; stroke-dasharray: 2.0,2.0;" x1="34" x2="248" y1="848.9375" y2="848.9375"/><text fill="#000000" font-family="sans-serif" font-size="13" lengthAdjust="spacingAndGlyphs" textLength="196" x="46" y="844.0811">409 "Conflicts with systemId XYZ"</text><!--MD5=[43c23a1920f71e9e4b20b83a85b63450]
@startuml duplicate
actor Client
participant "FINT API" as consumer
participant "FINT Provider API" as provider
participant Adapter
database HRM

Client -> consumer: POST /fastlonn\nkildesystemId: ABCD123
consumer -> provider: UPDATE_FASTLONN\n(DOWNSTREAM)
Client <- - consumer: 202 Location: /status/{uuid}
provider -> Adapter: UPDATE_FASTLONN\n(SENT_TO_ADAPTER)
... normal successful update ...
consumer <- provider: UPDATE_FASTLONN\n(SENT_TO_CONSUMER,ACCEPTED)
...
Client -> consumer: POST /fastlonn\nkildesystemId: ABCD123
consumer -> provider: UPDATE_FASTLONN\n(DOWNSTREAM)
Client <- - consumer: 202 Location: /status/{uuid}
provider -> Adapter: UPDATE_FASTLONN\n(SENT_TO_ADAPTER)
provider <- Adapter: UPDATE_FASTLONN\n(ADAPTER_ACCEPTED)
provider - - -> Adapter: 200
note right of Adapter
Adapter detects duplicate transaction
end note
provider <- Adapter: UPDATE_FASTLONN\n(ADAPTER_REJECTED, <font color="red">CONFLICT</font>)
provider - - -> Adapter: 200
consumer <- provider: UPDATE_FASTLONN\n(SENT_TO_CONSUMER, <font color="red">CONFLICT</font>)
Client -> consumer: GET /status/{uuid}
Client <-[#red]- consumer: 409 "Conflicts with systemId XYZ"
@enduml

PlantUML version 1.2019.11(Sun Sep 22 12:02:15 CEST 2019)
(GPL source distribution)
Java Runtime: OpenJDK Runtime Environment
JVM: OpenJDK 64-Bit Server VM
Java Version: 11.0.5+10-LTS
Operating System: Windows 10
Default Encoding: Cp1252
Language: en
Country: US
--></g></svg>