<?xml version="1.0" encoding="UTF-8" standalone="no"?><svg xmlns="http://www.w3.org/2000/svg" xmlns:xlink="http://www.w3.org/1999/xlink" contentScriptType="application/ecmascript" contentStyleType="text/css" height="590px" preserveAspectRatio="none" style="width:764px;height:590px;" version="1.1" viewBox="0 0 764 590" width="764px" zoomAndPan="magnify"><defs><filter height="300%" id="f1sfuzhgv5hbmi" width="300%" x="-1" y="-1"><feGaussianBlur result="blurOut" stdDeviation="2.0"/><feColorMatrix in="blurOut" result="blurOut2" type="matrix" values="0 0 0 0 0 0 0 0 0 0 0 0 0 0 0 0 0 0 .4 0"/><feOffset dx="4.0" dy="4.0" in="blurOut2" result="blurOut3"/><feBlend in="SourceGraphic" in2="blurOut3" mode="normal"/></filter></defs><g><rect fill="#FFFFFF" filter="url(#f1sfuzhgv5hbmi)" height="91.0547" style="stroke: #A80036; stroke-width: 1.0;" width="10" x="667" y="243.7188"/><line style="stroke: #A80036; stroke-width: 1.0;" x1="29" x2="29" y1="87.6094" y2="342.7734"/><line style="stroke: #A80036; stroke-width: 1.0; stroke-dasharray: 1.0,4.0;" x1="29" x2="29" y1="342.7734" y2="384.6094"/><line style="stroke: #A80036; stroke-width: 1.0;" x1="29" x2="29" y1="384.6094" y2="502.0156"/><line style="stroke: #A80036; stroke-width: 1.0;" x1="210.5" x2="210.5" y1="87.6094" y2="342.7734"/><line style="stroke: #A80036; stroke-width: 1.0; stroke-dasharray: 1.0,4.0;" x1="210.5" x2="210.5" y1="342.7734" y2="384.6094"/><line style="stroke: #A80036; stroke-width: 1.0;" x1="210.5" x2="210.5" y1="384.6094" y2="502.0156"/><line style="stroke: #A80036; stroke-width: 1.0;" x1="497" x2="497" y1="87.6094" y2="342.7734"/><line style="stroke: #A80036; stroke-width: 1.0; stroke-dasharray: 1.0,4.0;" x1="497" x2="497" y1="342.7734" y2="384.6094"/><line style="stroke: #A80036; stroke-width: 1.0;" x1="497" x2="497" y1="384.6094" y2="502.0156"/><line style="stroke: #A80036; stroke-width: 1.0;" x1="672" x2="672" y1="87.6094" y2="342.7734"/><line style="stroke: #A80036; stroke-width: 1.0; stroke-dasharray: 1.0,4.0;" x1="672" x2="672" y1="342.7734" y2="384.6094"/><line style="stroke: #A80036; stroke-width: 1.0;" x1="672" x2="672" y1="384.6094" y2="502.0156"/><line style="stroke: #A80036; stroke-width: 1.0;" x1="734" x2="734" y1="87.6094" y2="342.7734"/><line style="stroke: #A80036; stroke-width: 1.0; stroke-dasharray: 1.0,4.0;" x1="734" x2="734" y1="342.7734" y2="384.6094"/><line style="stroke: #A80036; stroke-width: 1.0;" x1="734" x2="734" y1="384.6094" y2="502.0156"/><text fill="#000000" font-family="sans-serif" font-size="14" lengthAdjust="spacingAndGlyphs" textLength="36" x="8" y="84.5332">Client</text><ellipse cx="29" cy="13" fill="#FEFECE" filter="url(#f1sfuzhgv5hbmi)" rx="8" ry="8" style="stroke: #A80036; stroke-width: 2.0;"/><path d="M29,21 L29,48 M16,29 L42,29 M29,48 L16,63 M29,48 L42,63 " fill="none" filter="url(#f1sfuzhgv5hbmi)" style="stroke: #A80036; stroke-width: 2.0;"/><text fill="#000000" font-family="sans-serif" font-size="14" lengthAdjust="spacingAndGlyphs" textLength="36" x="8" y="515.5488">Client</text><ellipse cx="29" cy="528.625" fill="#FEFECE" filter="url(#f1sfuzhgv5hbmi)" rx="8" ry="8" style="stroke: #A80036; stroke-width: 2.0;"/><path d="M29,536.625 L29,563.625 M16,544.625 L42,544.625 M29,563.625 L16,578.625 M29,563.625 L42,578.625 " fill="none" filter="url(#f1sfuzhgv5hbmi)" style="stroke: #A80036; stroke-width: 2.0;"/><rect fill="#FEFECE" filter="url(#f1sfuzhgv5hbmi)" height="31.6094" style="stroke: #A80036; stroke-width: 1.5;" width="69" x="174.5" y="51"/><text fill="#000000" font-family="sans-serif" font-size="14" lengthAdjust="spacingAndGlyphs" textLength="55" x="181.5" y="72.5332">FINT API</text><rect fill="#FEFECE" filter="url(#f1sfuzhgv5hbmi)" height="31.6094" style="stroke: #A80036; stroke-width: 1.5;" width="69" x="174.5" y="501.0156"/><text fill="#000000" font-family="sans-serif" font-size="14" lengthAdjust="spacingAndGlyphs" textLength="55" x="181.5" y="522.5488">FINT API</text><rect fill="#FEFECE" filter="url(#f1sfuzhgv5hbmi)" height="31.6094" style="stroke: #A80036; stroke-width: 1.5;" width="126" x="432" y="51"/><text fill="#000000" font-family="sans-serif" font-size="14" lengthAdjust="spacingAndGlyphs" textLength="112" x="439" y="72.5332">FINT Provider API</text><rect fill="#FEFECE" filter="url(#f1sfuzhgv5hbmi)" height="31.6094" style="stroke: #A80036; stroke-width: 1.5;" width="126" x="432" y="501.0156"/><text fill="#000000" font-family="sans-serif" font-size="14" lengthAdjust="spacingAndGlyphs" textLength="112" x="439" y="522.5488">FINT Provider API</text><rect fill="#FEFECE" filter="url(#f1sfuzhgv5hbmi)" height="31.6094" style="stroke: #A80036; stroke-width: 1.5;" width="64" x="638" y="51"/><text fill="#000000" font-family="sans-serif" font-size="14" lengthAdjust="spacingAndGlyphs" textLength="50" x="645" y="72.5332">Adapter</text><rect fill="#FEFECE" filter="url(#f1sfuzhgv5hbmi)" height="31.6094" style="stroke: #A80036; stroke-width: 1.5;" width="64" x="638" y="501.0156"/><text fill="#000000" font-family="sans-serif" font-size="14" lengthAdjust="spacingAndGlyphs" textLength="50" x="645" y="522.5488">Adapter</text><text fill="#000000" font-family="sans-serif" font-size="14" lengthAdjust="spacingAndGlyphs" textLength="30" x="716" y="84.5332">HRM</text><path d="M716,34 C716,24 734,24 734,24 C734,24 752,24 752,34 L752,60 C752,70 734,70 734,70 C734,70 716,70 716,60 L716,34 " fill="#FEFECE" filter="url(#f1sfuzhgv5hbmi)" style="stroke: #000000; stroke-width: 1.5;"/><path d="M716,34 C716,44 734,44 734,44 C734,44 752,44 752,34 " fill="none" style="stroke: #000000; stroke-width: 1.5;"/><text fill="#000000" font-family="sans-serif" font-size="14" lengthAdjust="spacingAndGlyphs" textLength="30" x="716" y="515.5488">HRM</text><path d="M716,528.625 C716,518.625 734,518.625 734,518.625 C734,518.625 752,518.625 752,528.625 L752,554.625 C752,564.625 734,564.625 734,564.625 C734,564.625 716,564.625 716,554.625 L716,528.625 " fill="#FEFECE" filter="url(#f1sfuzhgv5hbmi)" style="stroke: #000000; stroke-width: 1.5;"/><path d="M716,528.625 C716,538.625 734,538.625 734,538.625 C734,538.625 752,538.625 752,528.625 " fill="none" style="stroke: #000000; stroke-width: 1.5;"/><rect fill="#FFFFFF" filter="url(#f1sfuzhgv5hbmi)" height="91.0547" style="stroke: #A80036; stroke-width: 1.0;" width="10" x="667" y="243.7188"/><polygon fill="#A80036" points="199,115.9609,209,119.9609,199,123.9609,203,119.9609" style="stroke: #A80036; stroke-width: 1.0;"/><line style="stroke: #A80036; stroke-width: 1.0;" x1="29" x2="205" y1="119.9609" y2="119.9609"/><text fill="#000000" font-family="sans-serif" font-size="13" lengthAdjust="spacingAndGlyphs" textLength="88" x="36" y="115.1045">POST /fastlonn</text><polygon fill="#A80036" points="485,162.6641,495,166.6641,485,170.6641,489,166.6641" style="stroke: #A80036; stroke-width: 1.0;"/><line style="stroke: #A80036; stroke-width: 1.0;" x1="211" x2="491" y1="166.6641" y2="166.6641"/><text fill="#000000" font-family="sans-serif" font-size="13" lengthAdjust="spacingAndGlyphs" textLength="127" x="218" y="145.4561">UPDATE_FASTLONN</text><text fill="#000000" font-family="sans-serif" font-size="13" lengthAdjust="spacingAndGlyphs" textLength="103" x="218" y="161.8076">(DOWNSTREAM)</text><polygon fill="#A80036" points="40,193.0156,30,197.0156,40,201.0156,36,197.0156" style="stroke: #A80036; stroke-width: 1.0;"/><line style="stroke: #A80036; stroke-width: 1.0; stroke-dasharray: 2.0,2.0;" x1="34" x2="210" y1="197.0156" y2="197.0156"/><text fill="#000000" font-family="sans-serif" font-size="13" lengthAdjust="spacingAndGlyphs" textLength="158" x="46" y="192.1592">202 Location: /status/{uuid}</text><polygon fill="#A80036" points="655,239.7188,665,243.7188,655,247.7188,659,243.7188" style="stroke: #A80036; stroke-width: 1.0;"/><line style="stroke: #A80036; stroke-width: 1.0;" x1="497" x2="661" y1="243.7188" y2="243.7188"/><text fill="#000000" font-family="sans-serif" font-size="13" lengthAdjust="spacingAndGlyphs" textLength="127" x="504" y="222.5107">UPDATE_FASTLONN</text><text fill="#000000" font-family="sans-serif" font-size="13" lengthAdjust="spacingAndGlyphs" textLength="134" x="504" y="238.8623">(SENT_TO_ADAPTER)</text><polygon fill="#A80036" points="508,286.4219,498,290.4219,508,294.4219,504,290.4219" style="stroke: #A80036; stroke-width: 1.0;"/><line style="stroke: #A80036; stroke-width: 1.0;" x1="502" x2="666" y1="290.4219" y2="290.4219"/><text fill="#000000" font-family="sans-serif" font-size="13" lengthAdjust="spacingAndGlyphs" textLength="127" x="514" y="269.2139">UPDATE_FASTLONN</text><text fill="#000000" font-family="sans-serif" font-size="13" lengthAdjust="spacingAndGlyphs" textLength="146" x="514" y="285.5654">(ADAPTER_ACCEPTED)</text><polygon fill="#A80036" points="655,316.7734,665,320.7734,655,324.7734,659,320.7734" style="stroke: #A80036; stroke-width: 1.0;"/><line style="stroke: #A80036; stroke-width: 1.0; stroke-dasharray: 2.0,2.0;" x1="497" x2="661" y1="320.7734" y2="320.7734"/><text fill="#000000" font-family="sans-serif" font-size="13" lengthAdjust="spacingAndGlyphs" textLength="21" x="504" y="315.917">200</text><line style="stroke: #A80036; stroke-width: 2.0;" x1="716" x2="726" y1="329.7734" y2="339.7734"/><line style="stroke: #A80036; stroke-width: 2.0;" x1="716" x2="726" y1="339.7734" y2="329.7734"/><line style="stroke: #A80036; stroke-width: 1.0;" x1="672" x2="721" y1="334.7734" y2="334.7734"/><line style="stroke: #A80036; stroke-width: 2.0;" x1="663" x2="681" y1="325.7734" y2="343.7734"/><line style="stroke: #A80036; stroke-width: 2.0;" x1="663" x2="681" y1="343.7734" y2="325.7734"/><text fill="#000000" font-family="sans-serif" font-size="11" lengthAdjust="spacingAndGlyphs" textLength="52" x="355.5" y="368.1924">15 minutes</text><polygon fill="#A80036" points="222,419.3125,212,423.3125,222,427.3125,218,423.3125" style="stroke: #A80036; stroke-width: 1.0;"/><line style="stroke: #A80036; stroke-width: 1.0;" x1="216" x2="496" y1="423.3125" y2="423.3125"/><text fill="#000000" font-family="sans-serif" font-size="13" lengthAdjust="spacingAndGlyphs" textLength="127" x="228" y="402.1045">UPDATE_FASTLONN</text><text fill="#000000" font-family="sans-serif" font-size="13" lengthAdjust="spacingAndGlyphs" textLength="262" x="228" y="418.4561">NO_RESPONSE_FROM_ADAPTER,ERROR</text><polygon fill="#A80036" points="199,449.6641,209,453.6641,199,457.6641,203,453.6641" style="stroke: #A80036; stroke-width: 1.0;"/><line style="stroke: #A80036; stroke-width: 1.0;" x1="29" x2="205" y1="453.6641" y2="453.6641"/><text fill="#000000" font-family="sans-serif" font-size="13" lengthAdjust="spacingAndGlyphs" textLength="106" x="36" y="448.8076">GET /status/{uuid}</text><polygon fill="#FF0000" points="40,480.0156,30,484.0156,40,488.0156,36,484.0156" style="stroke: #FF0000; stroke-width: 1.0;"/><line style="stroke: #FF0000; stroke-width: 1.0; stroke-dasharray: 2.0,2.0;" x1="34" x2="210" y1="484.0156" y2="484.0156"/><text fill="#000000" font-family="sans-serif" font-size="13" lengthAdjust="spacingAndGlyphs" textLength="113" x="46" y="479.1592">500 "Event expired"</text><!--MD5=[fdb1c0cb21ee10da1030d179a8c9d822]
@startuml noresponse
actor Client
participant "FINT API" as consumer
participant "FINT Provider API" as provider
participant Adapter
database HRM

Client -> consumer: POST /fastlonn
consumer -> provider: UPDATE_FASTLONN\n(DOWNSTREAM)
Client <- - consumer: 202 Location: /status/{uuid}
provider -> Adapter: UPDATE_FASTLONN\n(SENT_TO_ADAPTER)
activate Adapter
provider <- Adapter: UPDATE_FASTLONN\n(ADAPTER_ACCEPTED)
provider - - -> Adapter: 200
Adapter ->x HRM
destroy Adapter
... 15 minutes ...
consumer <- provider: UPDATE_FASTLONN\nNO_RESPONSE_FROM_ADAPTER,ERROR
Client -> consumer: GET /status/{uuid}
Client <-[#red]- consumer: 500 "Event expired"
@enduml

PlantUML version 1.2019.11(Sun Sep 22 12:02:15 CEST 2019)
(GPL source distribution)
Java Runtime: OpenJDK Runtime Environment
JVM: OpenJDK 64-Bit Server VM
Java Version: 11.0.5+10-LTS
Operating System: Windows 10
Default Encoding: Cp1252
Language: en
Country: US
--></g></svg>