<?xml version="1.0" encoding="UTF-8" standalone="no"?><svg xmlns="http://www.w3.org/2000/svg" xmlns:xlink="http://www.w3.org/1999/xlink" contentScriptType="application/ecmascript" contentStyleType="text/css" height="824px" preserveAspectRatio="none" style="width:1042px;height:824px;" version="1.1" viewBox="0 0 1042 824" width="1042px" zoomAndPan="magnify"><defs><filter height="300%" id="fow5inhruxxxo" width="300%" x="-1" y="-1"><feGaussianBlur result="blurOut" stdDeviation="2.0"/><feColorMatrix in="blurOut" result="blurOut2" type="matrix" values="0 0 0 0 0 0 0 0 0 0 0 0 0 0 0 0 0 0 .4 0"/><feOffset dx="4.0" dy="4.0" in="blurOut2" result="blurOut3"/><feBlend in="SourceGraphic" in2="blurOut3" mode="normal"/></filter></defs><g><rect fill="#FFFFFF" filter="url(#fow5inhruxxxo)" height="245.1641" style="stroke: #A80036; stroke-width: 1.0;" width="10" x="704" y="243.7188"/><rect fill="#FFFFFF" filter="url(#fow5inhruxxxo)" height="168.1094" style="stroke: #A80036; stroke-width: 1.0;" width="10" x="1007" y="320.7734"/><line style="stroke: #A80036; stroke-width: 1.0; stroke-dasharray: 5.0,5.0;" x1="29" x2="29" y1="87.6094" y2="735.6953"/><line style="stroke: #A80036; stroke-width: 1.0; stroke-dasharray: 5.0,5.0;" x1="210.5" x2="210.5" y1="87.6094" y2="735.6953"/><line style="stroke: #A80036; stroke-width: 1.0; stroke-dasharray: 5.0,5.0;" x1="457" x2="457" y1="87.6094" y2="735.6953"/><line style="stroke: #A80036; stroke-width: 1.0; stroke-dasharray: 5.0,5.0;" x1="709" x2="709" y1="87.6094" y2="735.6953"/><line style="stroke: #A80036; stroke-width: 1.0; stroke-dasharray: 5.0,5.0;" x1="1012" x2="1012" y1="87.6094" y2="735.6953"/><text fill="#000000" font-family="sans-serif" font-size="14" lengthAdjust="spacingAndGlyphs" textLength="36" x="8" y="84.5332">Client</text><ellipse cx="29" cy="13" fill="#FEFECE" filter="url(#fow5inhruxxxo)" rx="8" ry="8" style="stroke: #A80036; stroke-width: 2.0;"/><path d="M29,21 L29,48 M16,29 L42,29 M29,48 L16,63 M29,48 L42,63 " fill="none" filter="url(#fow5inhruxxxo)" style="stroke: #A80036; stroke-width: 2.0;"/><text fill="#000000" font-family="sans-serif" font-size="14" lengthAdjust="spacingAndGlyphs" textLength="36" x="8" y="749.2285">Client</text><ellipse cx="29" cy="762.3047" fill="#FEFECE" filter="url(#fow5inhruxxxo)" rx="8" ry="8" style="stroke: #A80036; stroke-width: 2.0;"/><path d="M29,770.3047 L29,797.3047 M16,778.3047 L42,778.3047 M29,797.3047 L16,812.3047 M29,797.3047 L42,812.3047 " fill="none" filter="url(#fow5inhruxxxo)" style="stroke: #A80036; stroke-width: 2.0;"/><rect fill="#FEFECE" filter="url(#fow5inhruxxxo)" height="31.6094" style="stroke: #A80036; stroke-width: 1.5;" width="69" x="174.5" y="51"/><text fill="#000000" font-family="sans-serif" font-size="14" lengthAdjust="spacingAndGlyphs" textLength="55" x="181.5" y="72.5332">FINT API</text><rect fill="#FEFECE" filter="url(#fow5inhruxxxo)" height="31.6094" style="stroke: #A80036; stroke-width: 1.5;" width="69" x="174.5" y="734.6953"/><text fill="#000000" font-family="sans-serif" font-size="14" lengthAdjust="spacingAndGlyphs" textLength="55" x="181.5" y="756.2285">FINT API</text><rect fill="#FEFECE" filter="url(#fow5inhruxxxo)" height="31.6094" style="stroke: #A80036; stroke-width: 1.5;" width="126" x="392" y="51"/><text fill="#000000" font-family="sans-serif" font-size="14" lengthAdjust="spacingAndGlyphs" textLength="112" x="399" y="72.5332">FINT Provider API</text><rect fill="#FEFECE" filter="url(#fow5inhruxxxo)" height="31.6094" style="stroke: #A80036; stroke-width: 1.5;" width="126" x="392" y="734.6953"/><text fill="#000000" font-family="sans-serif" font-size="14" lengthAdjust="spacingAndGlyphs" textLength="112" x="399" y="756.2285">FINT Provider API</text><rect fill="#FEFECE" filter="url(#fow5inhruxxxo)" height="31.6094" style="stroke: #A80036; stroke-width: 1.5;" width="64" x="675" y="51"/><text fill="#000000" font-family="sans-serif" font-size="14" lengthAdjust="spacingAndGlyphs" textLength="50" x="682" y="72.5332">Adapter</text><rect fill="#FEFECE" filter="url(#fow5inhruxxxo)" height="31.6094" style="stroke: #A80036; stroke-width: 1.5;" width="64" x="675" y="734.6953"/><text fill="#000000" font-family="sans-serif" font-size="14" lengthAdjust="spacingAndGlyphs" textLength="50" x="682" y="756.2285">Adapter</text><text fill="#000000" font-family="sans-serif" font-size="14" lengthAdjust="spacingAndGlyphs" textLength="30" x="994" y="84.5332">HRM</text><path d="M994,34 C994,24 1012,24 1012,24 C1012,24 1030,24 1030,34 L1030,60 C1030,70 1012,70 1012,70 C1012,70 994,70 994,60 L994,34 " fill="#FEFECE" filter="url(#fow5inhruxxxo)" style="stroke: #000000; stroke-width: 1.5;"/><path d="M994,34 C994,44 1012,44 1012,44 C1012,44 1030,44 1030,34 " fill="none" style="stroke: #000000; stroke-width: 1.5;"/><text fill="#000000" font-family="sans-serif" font-size="14" lengthAdjust="spacingAndGlyphs" textLength="30" x="994" y="749.2285">HRM</text><path d="M994,762.3047 C994,752.3047 1012,752.3047 1012,752.3047 C1012,752.3047 1030,752.3047 1030,762.3047 L1030,788.3047 C1030,798.3047 1012,798.3047 1012,798.3047 C1012,798.3047 994,798.3047 994,788.3047 L994,762.3047 " fill="#FEFECE" filter="url(#fow5inhruxxxo)" style="stroke: #000000; stroke-width: 1.5;"/><path d="M994,762.3047 C994,772.3047 1012,772.3047 1012,772.3047 C1012,772.3047 1030,772.3047 1030,762.3047 " fill="none" style="stroke: #000000; stroke-width: 1.5;"/><rect fill="#FFFFFF" filter="url(#fow5inhruxxxo)" height="245.1641" style="stroke: #A80036; stroke-width: 1.0;" width="10" x="704" y="243.7188"/><rect fill="#FFFFFF" filter="url(#fow5inhruxxxo)" height="168.1094" style="stroke: #A80036; stroke-width: 1.0;" width="10" x="1007" y="320.7734"/><polygon fill="#A80036" points="199,115.9609,209,119.9609,199,123.9609,203,119.9609" style="stroke: #A80036; stroke-width: 1.0;"/><line style="stroke: #A80036; stroke-width: 1.0;" x1="29" x2="205" y1="119.9609" y2="119.9609"/><text fill="#000000" font-family="sans-serif" font-size="13" lengthAdjust="spacingAndGlyphs" textLength="88" x="36" y="115.1045">POST /fastlonn</text><polygon fill="#A80036" points="445,162.6641,455,166.6641,445,170.6641,449,166.6641" style="stroke: #A80036; stroke-width: 1.0;"/><line style="stroke: #A80036; stroke-width: 1.0;" x1="211" x2="451" y1="166.6641" y2="166.6641"/><text fill="#000000" font-family="sans-serif" font-size="13" lengthAdjust="spacingAndGlyphs" textLength="127" x="218" y="145.4561">UPDATE_FASTLONN</text><text fill="#000000" font-family="sans-serif" font-size="13" lengthAdjust="spacingAndGlyphs" textLength="103" x="218" y="161.8076">(DOWNSTREAM)</text><polygon fill="#A80036" points="40,193.0156,30,197.0156,40,201.0156,36,197.0156" style="stroke: #A80036; stroke-width: 1.0;"/><line style="stroke: #A80036; stroke-width: 1.0; stroke-dasharray: 2.0,2.0;" x1="34" x2="210" y1="197.0156" y2="197.0156"/><text fill="#000000" font-family="sans-serif" font-size="13" lengthAdjust="spacingAndGlyphs" textLength="158" x="46" y="192.1592">202 Location: /status/{uuid}</text><polygon fill="#A80036" points="692,239.7188,702,243.7188,692,247.7188,696,243.7188" style="stroke: #A80036; stroke-width: 1.0;"/><line style="stroke: #A80036; stroke-width: 1.0;" x1="457" x2="698" y1="243.7188" y2="243.7188"/><text fill="#000000" font-family="sans-serif" font-size="13" lengthAdjust="spacingAndGlyphs" textLength="127" x="464" y="222.5107">UPDATE_FASTLONN</text><text fill="#000000" font-family="sans-serif" font-size="13" lengthAdjust="spacingAndGlyphs" textLength="134" x="464" y="238.8623">(SENT_TO_ADAPTER)</text><polygon fill="#A80036" points="468,286.4219,458,290.4219,468,294.4219,464,290.4219" style="stroke: #A80036; stroke-width: 1.0;"/><line style="stroke: #A80036; stroke-width: 1.0;" x1="462" x2="703" y1="290.4219" y2="290.4219"/><text fill="#000000" font-family="sans-serif" font-size="13" lengthAdjust="spacingAndGlyphs" textLength="127" x="474" y="269.2139">UPDATE_FASTLONN</text><text fill="#000000" font-family="sans-serif" font-size="13" lengthAdjust="spacingAndGlyphs" textLength="146" x="474" y="285.5654">(ADAPTER_ACCEPTED)</text><polygon fill="#A80036" points="692,316.7734,702,320.7734,692,324.7734,696,320.7734" style="stroke: #A80036; stroke-width: 1.0;"/><line style="stroke: #A80036; stroke-width: 1.0; stroke-dasharray: 2.0,2.0;" x1="457" x2="698" y1="320.7734" y2="320.7734"/><text fill="#000000" font-family="sans-serif" font-size="13" lengthAdjust="spacingAndGlyphs" textLength="21" x="464" y="315.917">200</text><polygon fill="#A80036" points="995,347.125,1005,351.125,995,355.125,999,351.125" style="stroke: #A80036; stroke-width: 1.0;"/><line style="stroke: #A80036; stroke-width: 1.0;" x1="714" x2="1001" y1="351.125" y2="351.125"/><text fill="#000000" font-family="sans-serif" font-size="13" lengthAdjust="spacingAndGlyphs" textLength="134" x="721" y="346.2686">BEGIN TRANSACTION</text><polygon fill="#A80036" points="995,377.4766,1005,381.4766,995,385.4766,999,381.4766" style="stroke: #A80036; stroke-width: 1.0;"/><line style="stroke: #A80036; stroke-width: 1.0;" x1="714" x2="1001" y1="381.4766" y2="381.4766"/><text fill="#000000" font-family="sans-serif" font-size="13" lengthAdjust="spacingAndGlyphs" textLength="269" x="721" y="376.6201">INSERT INTO salarytransactions VALUES (...)</text><polygon fill="#A80036" points="468,424.1797,458,428.1797,468,432.1797,464,428.1797" style="stroke: #A80036; stroke-width: 1.0;"/><line style="stroke: #A80036; stroke-width: 1.0;" x1="462" x2="703" y1="428.1797" y2="428.1797"/><text fill="#000000" font-family="sans-serif" font-size="13" lengthAdjust="spacingAndGlyphs" textLength="127" x="474" y="406.9717">UPDATE_FASTLONN</text><text fill="#000000" font-family="sans-serif" font-size="13" lengthAdjust="spacingAndGlyphs" textLength="223" x="474" y="423.3232">(ADAPTER_RESPONSE,ACCEPTED)</text><polygon fill="#A80036" points="692,454.5313,702,458.5313,692,462.5313,696,458.5313" style="stroke: #A80036; stroke-width: 1.0;"/><line style="stroke: #A80036; stroke-width: 1.0; stroke-dasharray: 2.0,2.0;" x1="457" x2="698" y1="458.5313" y2="458.5313"/><text fill="#000000" font-family="sans-serif" font-size="13" lengthAdjust="spacingAndGlyphs" textLength="21" x="464" y="453.6748">200</text><polygon fill="#A80036" points="1000,484.8828,1010,488.8828,1000,492.8828,1004,488.8828" style="stroke: #A80036; stroke-width: 1.0;"/><line style="stroke: #A80036; stroke-width: 1.0;" x1="709" x2="1006" y1="488.8828" y2="488.8828"/><text fill="#000000" font-family="sans-serif" font-size="13" lengthAdjust="spacingAndGlyphs" textLength="51" x="716" y="484.0264">COMMIT</text><polygon fill="#A80036" points="199,515.2344,209,519.2344,199,523.2344,203,519.2344" style="stroke: #A80036; stroke-width: 1.0;"/><line style="stroke: #A80036; stroke-width: 1.0;" x1="29" x2="205" y1="519.2344" y2="519.2344"/><text fill="#000000" font-family="sans-serif" font-size="13" lengthAdjust="spacingAndGlyphs" textLength="106" x="36" y="514.3779">GET /status/{uuid}</text><polygon fill="#A80036" points="40,545.5859,30,549.5859,40,553.5859,36,549.5859" style="stroke: #A80036; stroke-width: 1.0;"/><line style="stroke: #A80036; stroke-width: 1.0; stroke-dasharray: 2.0,2.0;" x1="34" x2="210" y1="549.5859" y2="549.5859"/><text fill="#000000" font-family="sans-serif" font-size="13" lengthAdjust="spacingAndGlyphs" textLength="21" x="46" y="544.7295">202</text><polygon fill="#A80036" points="222,592.2891,212,596.2891,222,600.2891,218,596.2891" style="stroke: #A80036; stroke-width: 1.0;"/><line style="stroke: #A80036; stroke-width: 1.0;" x1="216" x2="456" y1="596.2891" y2="596.2891"/><text fill="#000000" font-family="sans-serif" font-size="13" lengthAdjust="spacingAndGlyphs" textLength="127" x="228" y="575.0811">UPDATE_FASTLONN</text><text fill="#000000" font-family="sans-serif" font-size="13" lengthAdjust="spacingAndGlyphs" textLength="222" x="228" y="591.4326">(SENT_TO_CONSUMER,ACCEPTED)</text><polygon fill="#A80036" points="199,622.6406,209,626.6406,199,630.6406,203,626.6406" style="stroke: #A80036; stroke-width: 1.0;"/><line style="stroke: #A80036; stroke-width: 1.0;" x1="29" x2="205" y1="626.6406" y2="626.6406"/><text fill="#000000" font-family="sans-serif" font-size="13" lengthAdjust="spacingAndGlyphs" textLength="106" x="36" y="621.7842">GET /status/{uuid}</text><polygon fill="#A80036" points="40,652.9922,30,656.9922,40,660.9922,36,656.9922" style="stroke: #A80036; stroke-width: 1.0;"/><line style="stroke: #A80036; stroke-width: 1.0; stroke-dasharray: 2.0,2.0;" x1="34" x2="210" y1="656.9922" y2="656.9922"/><text fill="#000000" font-family="sans-serif" font-size="13" lengthAdjust="spacingAndGlyphs" textLength="153" x="46" y="652.1357">303 /fastlonn/systemid/{id}</text><polygon fill="#A80036" points="199,683.3438,209,687.3438,199,691.3438,203,687.3438" style="stroke: #A80036; stroke-width: 1.0;"/><line style="stroke: #A80036; stroke-width: 1.0;" x1="29" x2="205" y1="687.3438" y2="687.3438"/><text fill="#000000" font-family="sans-serif" font-size="13" lengthAdjust="spacingAndGlyphs" textLength="154" x="36" y="682.4873">GET /fastlonn/systemid{id}</text><polygon fill="#A80036" points="40,713.6953,30,717.6953,40,721.6953,36,717.6953" style="stroke: #A80036; stroke-width: 1.0;"/><line style="stroke: #A80036; stroke-width: 1.0; stroke-dasharray: 2.0,2.0;" x1="34" x2="210" y1="717.6953" y2="717.6953"/><text fill="#000000" font-family="sans-serif" font-size="13" lengthAdjust="spacingAndGlyphs" textLength="21" x="46" y="712.8389">200</text><!--MD5=[97a4361e9fca5a2504e0625c52c6fdfb]
@startuml normal
actor Client
participant "FINT API" as consumer
participant "FINT Provider API" as provider
participant Adapter
database HRM

Client -> consumer: POST /fastlonn
consumer -> provider: UPDATE_FASTLONN\n(DOWNSTREAM)
Client <- - consumer: 202 Location: /status/{uuid}
provider -> Adapter: UPDATE_FASTLONN\n(SENT_TO_ADAPTER)
activate Adapter
provider <- Adapter: UPDATE_FASTLONN\n(ADAPTER_ACCEPTED)
provider - - -> Adapter: 200
activate HRM
Adapter -> HRM: BEGIN TRANSACTION
Adapter -> HRM: INSERT INTO salarytransactions VALUES (...)
provider <- Adapter: UPDATE_FASTLONN\n(ADAPTER_RESPONSE,ACCEPTED)
provider - - -> Adapter: 200
Adapter -> HRM: COMMIT
deactivate HRM
deactivate Adapter
Client -> consumer: GET /status/{uuid}
Client <- - consumer: 202
consumer <- provider: UPDATE_FASTLONN\n(SENT_TO_CONSUMER,ACCEPTED)
Client -> consumer: GET /status/{uuid}
Client <- - consumer: 303 /fastlonn/systemid/{id}
Client -> consumer: GET /fastlonn/systemid{id}
Client <- - consumer: 200
@enduml

PlantUML version 1.2019.11(Sun Sep 22 12:02:15 CEST 2019)
(GPL source distribution)
Java Runtime: OpenJDK Runtime Environment
JVM: OpenJDK 64-Bit Server VM
Java Version: 11.0.5+10-LTS
Operating System: Windows 10
Default Encoding: Cp1252
Language: en
Country: US
--></g></svg>