<?xml version="1.0" encoding="UTF-8" standalone="no"?><svg xmlns="http://www.w3.org/2000/svg" xmlns:xlink="http://www.w3.org/1999/xlink" contentScriptType="application/ecmascript" contentStyleType="text/css" height="698px" preserveAspectRatio="none" style="width:947px;height:698px;" version="1.1" viewBox="0 0 947 698" width="947px" zoomAndPan="magnify"><defs><filter height="300%" id="f1g8as08tly842" width="300%" x="-1" y="-1"><feGaussianBlur result="blurOut" stdDeviation="2.0"/><feColorMatrix in="blurOut" result="blurOut2" type="matrix" values="0 0 0 0 0 0 0 0 0 0 0 0 0 0 0 0 0 0 .4 0"/><feOffset dx="4.0" dy="4.0" in="blurOut2" result="blurOut3"/><feBlend in="SourceGraphic" in2="blurOut3" mode="normal"/></filter></defs><g><rect fill="#FFFFFF" filter="url(#f1g8as08tly842)" height="145.7578" style="stroke: #FFFFFF; stroke-width: 1.0;" width="10" x="609" y="243.7188"/><line style="stroke: #A80036; stroke-width: 1.0;" x1="609" x2="609" y1="243.7188" y2="389.4766"/><line style="stroke: #A80036; stroke-width: 1.0;" x1="619" x2="619" y1="243.7188" y2="389.4766"/><line style="stroke: #A80036; stroke-width: 1.0;" x1="609" x2="619" y1="243.7188" y2="243.7188"/><rect fill="#FFFFFF" filter="url(#f1g8as08tly842)" height="99.4063" style="stroke: #FFFFFF; stroke-width: 1.0;" width="10" x="609" y="431.3125"/><line style="stroke: #A80036; stroke-width: 1.0;" x1="609" x2="609" y1="431.3125" y2="530.7188"/><line style="stroke: #A80036; stroke-width: 1.0;" x1="619" x2="619" y1="431.3125" y2="530.7188"/><line style="stroke: #A80036; stroke-width: 1.0;" x1="609" x2="619" y1="530.7188" y2="530.7188"/><rect fill="#FFFFFF" filter="url(#f1g8as08tly842)" height="68.7031" style="stroke: #FFFFFF; stroke-width: 1.0;" width="10" x="912" y="320.7734"/><line style="stroke: #A80036; stroke-width: 1.0;" x1="912" x2="912" y1="320.7734" y2="389.4766"/><line style="stroke: #A80036; stroke-width: 1.0;" x1="922" x2="922" y1="320.7734" y2="389.4766"/><line style="stroke: #A80036; stroke-width: 1.0;" x1="912" x2="922" y1="320.7734" y2="320.7734"/><rect fill="#FFFFFF" filter="url(#f1g8as08tly842)" height="99.4063" style="stroke: #FFFFFF; stroke-width: 1.0;" width="10" x="912" y="431.3125"/><line style="stroke: #A80036; stroke-width: 1.0;" x1="912" x2="912" y1="431.3125" y2="530.7188"/><line style="stroke: #A80036; stroke-width: 1.0;" x1="922" x2="922" y1="431.3125" y2="530.7188"/><line style="stroke: #A80036; stroke-width: 1.0;" x1="912" x2="922" y1="530.7188" y2="530.7188"/><line style="stroke: #A80036; stroke-width: 1.0;" x1="29" x2="29" y1="87.6094" y2="389.4766"/><line style="stroke: #A80036; stroke-width: 1.0; stroke-dasharray: 1.0,4.0;" x1="29" x2="29" y1="389.4766" y2="431.3125"/><line style="stroke: #A80036; stroke-width: 1.0;" x1="29" x2="29" y1="431.3125" y2="609.4219"/><line style="stroke: #A80036; stroke-width: 1.0;" x1="210.5" x2="210.5" y1="87.6094" y2="389.4766"/><line style="stroke: #A80036; stroke-width: 1.0; stroke-dasharray: 1.0,4.0;" x1="210.5" x2="210.5" y1="389.4766" y2="431.3125"/><line style="stroke: #A80036; stroke-width: 1.0;" x1="210.5" x2="210.5" y1="431.3125" y2="609.4219"/><line style="stroke: #A80036; stroke-width: 1.0;" x1="362" x2="362" y1="87.6094" y2="389.4766"/><line style="stroke: #A80036; stroke-width: 1.0; stroke-dasharray: 1.0,4.0;" x1="362" x2="362" y1="389.4766" y2="431.3125"/><line style="stroke: #A80036; stroke-width: 1.0;" x1="362" x2="362" y1="431.3125" y2="609.4219"/><line style="stroke: #A80036; stroke-width: 1.0;" x1="614" x2="614" y1="87.6094" y2="389.4766"/><line style="stroke: #A80036; stroke-width: 1.0; stroke-dasharray: 1.0,4.0;" x1="614" x2="614" y1="389.4766" y2="431.3125"/><line style="stroke: #A80036; stroke-width: 1.0;" x1="614" x2="614" y1="431.3125" y2="609.4219"/><line style="stroke: #A80036; stroke-width: 1.0;" x1="917" x2="917" y1="87.6094" y2="389.4766"/><line style="stroke: #A80036; stroke-width: 1.0; stroke-dasharray: 1.0,4.0;" x1="917" x2="917" y1="389.4766" y2="431.3125"/><line style="stroke: #A80036; stroke-width: 1.0;" x1="917" x2="917" y1="431.3125" y2="609.4219"/><text fill="#000000" font-family="sans-serif" font-size="14" lengthAdjust="spacingAndGlyphs" textLength="36" x="8" y="84.5332">Client</text><ellipse cx="29" cy="13" fill="#FEFECE" filter="url(#f1g8as08tly842)" rx="8" ry="8" style="stroke: #A80036; stroke-width: 2.0;"/><path d="M29,21 L29,48 M16,29 L42,29 M29,48 L16,63 M29,48 L42,63 " fill="none" filter="url(#f1g8as08tly842)" style="stroke: #A80036; stroke-width: 2.0;"/><text fill="#000000" font-family="sans-serif" font-size="14" lengthAdjust="spacingAndGlyphs" textLength="36" x="8" y="622.9551">Client</text><ellipse cx="29" cy="636.0313" fill="#FEFECE" filter="url(#f1g8as08tly842)" rx="8" ry="8" style="stroke: #A80036; stroke-width: 2.0;"/><path d="M29,644.0313 L29,671.0313 M16,652.0313 L42,652.0313 M29,671.0313 L16,686.0313 M29,671.0313 L42,686.0313 " fill="none" filter="url(#f1g8as08tly842)" style="stroke: #A80036; stroke-width: 2.0;"/><rect fill="#FEFECE" filter="url(#f1g8as08tly842)" height="31.6094" style="stroke: #A80036; stroke-width: 1.5;" width="69" x="174.5" y="51"/><text fill="#000000" font-family="sans-serif" font-size="14" lengthAdjust="spacingAndGlyphs" textLength="55" x="181.5" y="72.5332">FINT API</text><rect fill="#FEFECE" filter="url(#f1g8as08tly842)" height="31.6094" style="stroke: #A80036; stroke-width: 1.5;" width="69" x="174.5" y="608.4219"/><text fill="#000000" font-family="sans-serif" font-size="14" lengthAdjust="spacingAndGlyphs" textLength="55" x="181.5" y="629.9551">FINT API</text><rect fill="#FEFECE" filter="url(#f1g8as08tly842)" height="31.6094" style="stroke: #A80036; stroke-width: 1.5;" width="126" x="297" y="51"/><text fill="#000000" font-family="sans-serif" font-size="14" lengthAdjust="spacingAndGlyphs" textLength="112" x="304" y="72.5332">FINT Provider API</text><rect fill="#FEFECE" filter="url(#f1g8as08tly842)" height="31.6094" style="stroke: #A80036; stroke-width: 1.5;" width="126" x="297" y="608.4219"/><text fill="#000000" font-family="sans-serif" font-size="14" lengthAdjust="spacingAndGlyphs" textLength="112" x="304" y="629.9551">FINT Provider API</text><rect fill="#FEFECE" filter="url(#f1g8as08tly842)" height="31.6094" style="stroke: #A80036; stroke-width: 1.5;" width="64" x="580" y="51"/><text fill="#000000" font-family="sans-serif" font-size="14" lengthAdjust="spacingAndGlyphs" textLength="50" x="587" y="72.5332">Adapter</text><rect fill="#FEFECE" filter="url(#f1g8as08tly842)" height="31.6094" style="stroke: #A80036; stroke-width: 1.5;" width="64" x="580" y="608.4219"/><text fill="#000000" font-family="sans-serif" font-size="14" lengthAdjust="spacingAndGlyphs" textLength="50" x="587" y="629.9551">Adapter</text><text fill="#000000" font-family="sans-serif" font-size="14" lengthAdjust="spacingAndGlyphs" textLength="30" x="899" y="84.5332">HRM</text><path d="M899,34 C899,24 917,24 917,24 C917,24 935,24 935,34 L935,60 C935,70 917,70 917,70 C917,70 899,70 899,60 L899,34 " fill="#FEFECE" filter="url(#f1g8as08tly842)" style="stroke: #000000; stroke-width: 1.5;"/><path d="M899,34 C899,44 917,44 917,44 C917,44 935,44 935,34 " fill="none" style="stroke: #000000; stroke-width: 1.5;"/><text fill="#000000" font-family="sans-serif" font-size="14" lengthAdjust="spacingAndGlyphs" textLength="30" x="899" y="622.9551">HRM</text><path d="M899,636.0313 C899,626.0313 917,626.0313 917,626.0313 C917,626.0313 935,626.0313 935,636.0313 L935,662.0313 C935,672.0313 917,672.0313 917,672.0313 C917,672.0313 899,672.0313 899,662.0313 L899,636.0313 " fill="#FEFECE" filter="url(#f1g8as08tly842)" style="stroke: #000000; stroke-width: 1.5;"/><path d="M899,636.0313 C899,646.0313 917,646.0313 917,646.0313 C917,646.0313 935,646.0313 935,636.0313 " fill="none" style="stroke: #000000; stroke-width: 1.5;"/><rect fill="#FFFFFF" filter="url(#f1g8as08tly842)" height="145.7578" style="stroke: #FFFFFF; stroke-width: 1.0;" width="10" x="609" y="243.7188"/><line style="stroke: #A80036; stroke-width: 1.0;" x1="609" x2="609" y1="243.7188" y2="389.4766"/><line style="stroke: #A80036; stroke-width: 1.0;" x1="619" x2="619" y1="243.7188" y2="389.4766"/><line style="stroke: #A80036; stroke-width: 1.0;" x1="609" x2="619" y1="243.7188" y2="243.7188"/><rect fill="#FFFFFF" filter="url(#f1g8as08tly842)" height="99.4063" style="stroke: #FFFFFF; stroke-width: 1.0;" width="10" x="609" y="431.3125"/><line style="stroke: #A80036; stroke-width: 1.0;" x1="609" x2="609" y1="431.3125" y2="530.7188"/><line style="stroke: #A80036; stroke-width: 1.0;" x1="619" x2="619" y1="431.3125" y2="530.7188"/><line style="stroke: #A80036; stroke-width: 1.0;" x1="609" x2="619" y1="530.7188" y2="530.7188"/><rect fill="#FFFFFF" filter="url(#f1g8as08tly842)" height="68.7031" style="stroke: #FFFFFF; stroke-width: 1.0;" width="10" x="912" y="320.7734"/><line style="stroke: #A80036; stroke-width: 1.0;" x1="912" x2="912" y1="320.7734" y2="389.4766"/><line style="stroke: #A80036; stroke-width: 1.0;" x1="922" x2="922" y1="320.7734" y2="389.4766"/><line style="stroke: #A80036; stroke-width: 1.0;" x1="912" x2="922" y1="320.7734" y2="320.7734"/><rect fill="#FFFFFF" filter="url(#f1g8as08tly842)" height="99.4063" style="stroke: #FFFFFF; stroke-width: 1.0;" width="10" x="912" y="431.3125"/><line style="stroke: #A80036; stroke-width: 1.0;" x1="912" x2="912" y1="431.3125" y2="530.7188"/><line style="stroke: #A80036; stroke-width: 1.0;" x1="922" x2="922" y1="431.3125" y2="530.7188"/><line style="stroke: #A80036; stroke-width: 1.0;" x1="912" x2="922" y1="530.7188" y2="530.7188"/><polygon fill="#A80036" points="199,115.9609,209,119.9609,199,123.9609,203,119.9609" style="stroke: #A80036; stroke-width: 1.0;"/><line style="stroke: #A80036; stroke-width: 1.0;" x1="29" x2="205" y1="119.9609" y2="119.9609"/><text fill="#000000" font-family="sans-serif" font-size="13" lengthAdjust="spacingAndGlyphs" textLength="88" x="36" y="115.1045">POST /fastlonn</text><polygon fill="#A80036" points="350,162.6641,360,166.6641,350,170.6641,354,166.6641" style="stroke: #A80036; stroke-width: 1.0;"/><line style="stroke: #A80036; stroke-width: 1.0;" x1="211" x2="356" y1="166.6641" y2="166.6641"/><text fill="#000000" font-family="sans-serif" font-size="13" lengthAdjust="spacingAndGlyphs" textLength="127" x="218" y="145.4561">UPDATE_FASTLONN</text><text fill="#000000" font-family="sans-serif" font-size="13" lengthAdjust="spacingAndGlyphs" textLength="103" x="218" y="161.8076">(DOWNSTREAM)</text><polygon fill="#A80036" points="40,193.0156,30,197.0156,40,201.0156,36,197.0156" style="stroke: #A80036; stroke-width: 1.0;"/><line style="stroke: #A80036; stroke-width: 1.0; stroke-dasharray: 2.0,2.0;" x1="34" x2="210" y1="197.0156" y2="197.0156"/><text fill="#000000" font-family="sans-serif" font-size="13" lengthAdjust="spacingAndGlyphs" textLength="158" x="46" y="192.1592">202 Location: /status/{uuid}</text><polygon fill="#A80036" points="597,239.7188,607,243.7188,597,247.7188,601,243.7188" style="stroke: #A80036; stroke-width: 1.0;"/><line style="stroke: #A80036; stroke-width: 1.0;" x1="362" x2="603" y1="243.7188" y2="243.7188"/><text fill="#000000" font-family="sans-serif" font-size="13" lengthAdjust="spacingAndGlyphs" textLength="127" x="369" y="222.5107">UPDATE_FASTLONN</text><text fill="#000000" font-family="sans-serif" font-size="13" lengthAdjust="spacingAndGlyphs" textLength="134" x="369" y="238.8623">(SENT_TO_ADAPTER)</text><polygon fill="#A80036" points="373,286.4219,363,290.4219,373,294.4219,369,290.4219" style="stroke: #A80036; stroke-width: 1.0;"/><line style="stroke: #A80036; stroke-width: 1.0;" x1="367" x2="608" y1="290.4219" y2="290.4219"/><text fill="#000000" font-family="sans-serif" font-size="13" lengthAdjust="spacingAndGlyphs" textLength="127" x="379" y="269.2139">UPDATE_FASTLONN</text><text fill="#000000" font-family="sans-serif" font-size="13" lengthAdjust="spacingAndGlyphs" textLength="146" x="379" y="285.5654">(ADAPTER_ACCEPTED)</text><polygon fill="#A80036" points="597,316.7734,607,320.7734,597,324.7734,601,320.7734" style="stroke: #A80036; stroke-width: 1.0;"/><line style="stroke: #A80036; stroke-width: 1.0; stroke-dasharray: 2.0,2.0;" x1="362" x2="603" y1="320.7734" y2="320.7734"/><text fill="#000000" font-family="sans-serif" font-size="13" lengthAdjust="spacingAndGlyphs" textLength="21" x="369" y="315.917">200</text><polygon fill="#A80036" points="900,347.125,910,351.125,900,355.125,904,351.125" style="stroke: #A80036; stroke-width: 1.0;"/><line style="stroke: #A80036; stroke-width: 1.0;" x1="619" x2="906" y1="351.125" y2="351.125"/><text fill="#000000" font-family="sans-serif" font-size="13" lengthAdjust="spacingAndGlyphs" textLength="134" x="626" y="346.2686">BEGIN TRANSACTION</text><polygon fill="#A80036" points="900,377.4766,910,381.4766,900,385.4766,904,381.4766" style="stroke: #A80036; stroke-width: 1.0;"/><line style="stroke: #A80036; stroke-width: 1.0;" x1="619" x2="906" y1="381.4766" y2="381.4766"/><text fill="#000000" font-family="sans-serif" font-size="13" lengthAdjust="spacingAndGlyphs" textLength="269" x="626" y="376.6201">INSERT INTO salarytransactions VALUES (...)</text><text fill="#000000" font-family="sans-serif" font-size="11" lengthAdjust="spacingAndGlyphs" textLength="52" x="447" y="414.8955">15 minutes</text><polygon fill="#A80036" points="373,466.0156,363,470.0156,373,474.0156,369,470.0156" style="stroke: #A80036; stroke-width: 1.0;"/><line style="stroke: #A80036; stroke-width: 1.0;" x1="367" x2="608" y1="470.0156" y2="470.0156"/><text fill="#000000" font-family="sans-serif" font-size="13" lengthAdjust="spacingAndGlyphs" textLength="127" x="379" y="448.8076">UPDATE_FASTLONN</text><text fill="#000000" font-family="sans-serif" font-size="13" lengthAdjust="spacingAndGlyphs" textLength="223" x="379" y="465.1592">(ADAPTER_RESPONSE,ACCEPTED)</text><polygon fill="#FF0000" points="597,496.3672,607,500.3672,597,504.3672,601,500.3672" style="stroke: #FF0000; stroke-width: 1.0;"/><line style="stroke: #FF0000; stroke-width: 1.0; stroke-dasharray: 2.0,2.0;" x1="362" x2="603" y1="500.3672" y2="500.3672"/><text fill="#000000" font-family="sans-serif" font-size="13" lengthAdjust="spacingAndGlyphs" textLength="21" x="369" y="495.5107">410</text><polygon fill="#A80036" points="905,526.7188,915,530.7188,905,534.7188,909,530.7188" style="stroke: #A80036; stroke-width: 1.0;"/><line style="stroke: #A80036; stroke-width: 1.0;" x1="614" x2="911" y1="530.7188" y2="530.7188"/><text fill="#000000" font-family="sans-serif" font-size="13" lengthAdjust="spacingAndGlyphs" textLength="69" x="621" y="525.8623">ROLLBACK</text><polygon fill="#A80036" points="199,557.0703,209,561.0703,199,565.0703,203,561.0703" style="stroke: #A80036; stroke-width: 1.0;"/><line style="stroke: #A80036; stroke-width: 1.0;" x1="29" x2="205" y1="561.0703" y2="561.0703"/><text fill="#000000" font-family="sans-serif" font-size="13" lengthAdjust="spacingAndGlyphs" textLength="106" x="36" y="556.2139">GET /status/{uuid}</text><polygon fill="#FF0000" points="40,587.4219,30,591.4219,40,595.4219,36,591.4219" style="stroke: #FF0000; stroke-width: 1.0;"/><line style="stroke: #FF0000; stroke-width: 1.0; stroke-dasharray: 2.0,2.0;" x1="34" x2="210" y1="591.4219" y2="591.4219"/><text fill="#000000" font-family="sans-serif" font-size="13" lengthAdjust="spacingAndGlyphs" textLength="21" x="46" y="586.5654">410</text><!--MD5=[4c0605118af03c05d67ab0795fcc9f53]
@startuml orphaned
actor Client
participant "FINT API" as consumer
participant "FINT Provider API" as provider
participant Adapter
database HRM

Client -> consumer: POST /fastlonn
consumer -> provider: UPDATE_FASTLONN\n(DOWNSTREAM)
Client <- - consumer: 202 Location: /status/{uuid}
provider -> Adapter: UPDATE_FASTLONN\n(SENT_TO_ADAPTER)
activate Adapter
provider <- Adapter: UPDATE_FASTLONN\n(ADAPTER_ACCEPTED)
provider - - -> Adapter: 200
activate HRM
Adapter -> HRM: BEGIN TRANSACTION
Adapter -> HRM: INSERT INTO salarytransactions VALUES (...)
... 15 minutes ...
provider <- Adapter: UPDATE_FASTLONN\n(ADAPTER_RESPONSE,ACCEPTED)
provider - -[#red]-> Adapter: 410
Adapter -> HRM: ROLLBACK
deactivate HRM
deactivate Adapter
Client -> consumer: GET /status/{uuid}
Client <-[#red]- consumer: 410
@enduml

PlantUML version 1.2019.11(Sun Sep 22 12:02:15 CEST 2019)
(GPL source distribution)
Java Runtime: OpenJDK Runtime Environment
JVM: OpenJDK 64-Bit Server VM
Java Version: 11.0.5+10-LTS
Operating System: Windows 10
Default Encoding: Cp1252
Language: en
Country: US
--></g></svg>