<svg width="203" height="131" viewBox="0 0 203 131" fill="none" xmlns="http://www.w3.org/2000/svg">
<path d="M17.437 85.7559C22.533 85.7559 25.081 83.0959 25.081 77.7759V61.4799H43.813C47.845 61.4799 49.861 59.4919 49.861 55.5159C49.861 51.5959 47.845 49.6359 43.813 49.6359H25.081V37.7079H45.661C49.693 37.7079 51.709 35.6919 51.709 31.6599C51.709 27.7399 49.693 25.7799 45.661 25.7799H17.689C12.313 25.7799 9.625 28.4399 9.625 33.7599V77.7759C9.625 80.3519 10.311 82.3259 11.683 83.6979C13.055 85.0699 14.973 85.7559 17.437 85.7559ZM66.4615 85.7559C68.9815 85.7559 70.8995 85.0839 72.2155 83.7399C73.5315 82.3959 74.1895 80.4359 74.1895 77.8599V32.9199C74.1895 30.3439 73.5175 28.3839 72.1735 27.0399C70.8295 25.6959 68.9255 25.0239 66.4615 25.0239C63.9975 25.0239 62.0935 25.6959 60.7495 27.0399C59.4055 28.3839 58.7335 30.3439 58.7335 32.9199V77.8599C58.7335 80.4359 59.4055 82.3959 60.7495 83.7399C62.0935 85.0839 63.9975 85.7559 66.4615 85.7559ZM132.034 85.7559C133.938 85.7559 135.45 85.1259 136.57 83.8659C137.69 82.6059 138.25 80.9119 138.25 78.7839V32.2479C138.25 29.9519 137.648 28.1739 136.444 26.9139C135.24 25.6539 133.462 25.0239 131.11 25.0239C126.35 25.0239 123.97 27.4319 123.97 32.2479V59.7159L99.694 29.3919C98.406 27.8239 97.272 26.7039 96.292 26.0319C95.312 25.3599 93.926 25.0239 92.134 25.0239C90.118 25.0239 88.494 25.6819 87.262 26.9979C86.03 28.3139 85.414 30.2039 85.414 32.6679V78.4479C85.414 83.3199 87.822 85.7559 92.638 85.7559C97.398 85.7559 99.778 83.3199 99.778 78.4479V51.0639L124.054 81.3879C125.286 82.9559 126.448 84.0759 127.54 84.7479C128.632 85.4199 130.13 85.7559 132.034 85.7559ZM171.23 85.7559C173.75 85.7559 175.668 85.0839 176.984 83.7399C178.3 82.3959 178.958 80.4639 178.958 77.9439V38.3799H192.146C196.402 38.3799 198.531 36.2799 198.531 32.0799C198.531 27.8799 196.402 25.7799 192.146 25.7799H150.314C146.058 25.7799 143.93 27.8799 143.93 32.0799C143.93 36.2799 146.058 38.3799 150.314 38.3799H163.503V77.9439C163.503 80.4639 164.174 82.3959 165.518 83.7399C166.862 85.0839 168.766 85.7559 171.23 85.7559Z" fill="white" fill-opacity="0.9"/>
<path d="M17.437 85.7559C22.533 85.7559 25.081 83.0959 25.081 77.7759V61.4799H43.813C47.845 61.4799 49.861 59.4919 49.861 55.5159C49.861 51.5959 47.845 49.6359 43.813 49.6359H25.081V37.7079H45.661C49.693 37.7079 51.709 35.6919 51.709 31.6599C51.709 27.7399 49.693 25.7799 45.661 25.7799H17.689C12.313 25.7799 9.625 28.4399 9.625 33.7599V77.7759C9.625 80.3519 10.311 82.3259 11.683 83.6979C13.055 85.0699 14.973 85.7559 17.437 85.7559ZM66.4615 85.7559C68.9815 85.7559 70.8995 85.0839 72.2155 83.7399C73.5315 82.3959 74.1895 80.4359 74.1895 77.8599V32.9199C74.1895 30.3439 73.5175 28.3839 72.1735 27.0399C70.8295 25.6959 68.9255 25.0239 66.4615 25.0239C63.9975 25.0239 62.0935 25.6959 60.7495 27.0399C59.4055 28.3839 58.7335 30.3439 58.7335 32.9199V77.8599C58.7335 80.4359 59.4055 82.3959 60.7495 83.7399C62.0935 85.0839 63.9975 85.7559 66.4615 85.7559ZM132.034 85.7559C133.938 85.7559 135.45 85.1259 136.57 83.8659C137.69 82.6059 138.25 80.9119 138.25 78.7839V32.2479C138.25 29.9519 137.648 28.1739 136.444 26.9139C135.24 25.6539 133.462 25.0239 131.11 25.0239C126.35 25.0239 123.97 27.4319 123.97 32.2479V59.7159L99.694 29.3919C98.406 27.8239 97.272 26.7039 96.292 26.0319C95.312 25.3599 93.926 25.0239 92.134 25.0239C90.118 25.0239 88.494 25.6819 87.262 26.9979C86.03 28.3139 85.414 30.2039 85.414 32.6679V78.4479C85.414 83.3199 87.822 85.7559 92.638 85.7559C97.398 85.7559 99.778 83.3199 99.778 78.4479V51.0639L124.054 81.3879C125.286 82.9559 126.448 84.0759 127.54 84.7479C128.632 85.4199 130.13 85.7559 132.034 85.7559ZM171.23 85.7559C173.75 85.7559 175.668 85.0839 176.984 83.7399C178.3 82.3959 178.958 80.4639 178.958 77.9439V38.3799H192.146C196.402 38.3799 198.531 36.2799 198.531 32.0799C198.531 27.8799 196.402 25.7799 192.146 25.7799H150.314C146.058 25.7799 143.93 27.8799 143.93 32.0799C143.93 36.2799 146.058 38.3799 150.314 38.3799H163.503V77.9439C163.503 80.4639 164.174 82.3959 165.518 83.7399C166.862 85.0839 168.766 85.7559 171.23 85.7559Z" fill="#8CC640"/>
<g clip-path="url(#clip0_2001_3134)">
<path d="M83.5762 101.107V106.484C89.2963 106.484 93.8871 111.394 93.2312 117.129C92.7212 121.502 89.1506 125.05 84.6692 125.552C78.8033 126.197 73.8482 121.681 73.8482 116.054H68.3831C68.3831 124.297 75.1963 131 83.5762 131C91.956 131 98.7693 124.297 98.7693 116.054C98.7693 107.81 91.956 101.107 83.5762 101.107Z" fill="#F76650"/>
<path d="M175.536 101H169.743V131H175.536V112.756L186.795 107.237V101.108L175.536 106.95V101Z" fill="#F76650"/>
<path d="M73.9211 116.054H79.3862C79.3862 107.487 72.0265 100.57 63.2094 101.143C55.1574 101.645 49 108.419 49 116.341V130.928H54.4651V116.269C54.4651 111.251 58.3272 106.914 63.428 106.52C69.1117 106.09 73.8846 110.534 73.8846 116.054H73.9211Z" fill="#F76650"/>
<path d="M148.065 101.072C139.685 101.072 132.872 107.774 132.872 116.018C132.872 124.262 139.685 130.964 148.065 130.964C156.445 130.964 155.133 129.674 157.793 127.488V130.964H163.258V115.91C163.185 107.738 156.408 101.108 148.065 101.108V101.072ZM148.065 125.301C142.709 125.301 138.337 121 138.337 115.731C138.337 110.462 142.709 106.161 148.065 106.161C153.421 106.161 157.793 110.462 157.793 115.731C157.793 121 153.421 125.301 148.065 125.301Z" fill="#F76650"/>
<path d="M199 101.072H193.207V130.928H199V101.072Z" fill="#F76650"/>
<path d="M116.185 124.118L107.186 101.107H100.773L112.869 130.892H119.245L131.232 101.107H124.783L116.185 124.118Z" fill="#F76650"/>
</g>
<defs>
<clipPath id="clip0_2001_3134">
<rect width="150" height="30" fill="white" transform="translate(49 101)"/>
</clipPath>
</defs>
</svg>
